<svg width="605" height="418" viewBox="0 0 605 418" fill="none" xmlns="http://www.w3.org/2000/svg">
<g clip-path="url(#clip0)">
<path opacity="0.1" d="M342.206 56.9083C303.426 56.9602 266.099 45.9585 230.396 33.7366C194.692 21.5147 159.264 7.82866 121.205 2.02923C96.7288 -1.6986 68.8956 -1.35593 49.7625 12.1795C31.3454 25.201 26.0122 46.7528 23.439 66.664C21.5039 81.6428 20.6116 97.3641 27.8591 111.066C32.8914 120.577 41.5033 128.417 47.5732 137.482C68.7607 169.018 56.0191 209.303 35.4283 241.571C25.7736 256.711 14.4639 271.222 7.16447 287.229C-0.134933 303.236 -3.12836 321.387 4.3163 337.186C11.6935 352.845 28.3571 364.21 46.2399 371.972C82.5554 387.766 124.837 391.151 165.982 392.455C257.062 395.347 348.317 389.449 439.329 383.55C473.009 381.37 506.839 379.174 539.824 372.855C558.137 369.35 576.996 364.148 589.981 352.747C606.463 338.271 609.835 314.638 597.841 297.649C577.727 269.156 524.691 263.782 510.268 232.952C502.315 215.98 509.174 196.515 519.275 180.155C540.939 145.052 578.23 113.61 578.858 74.3481C579.289 47.3862 559.896 21.0837 530.932 9.36548C500.572 -2.90833 459.178 0.248386 437.907 23.1242C416.035 46.6905 376.446 56.872 342.206 56.9083Z" fill="#00FFF5"/>
<path d="M514.917 335.069C514.917 335.069 508.541 330.858 502.222 333.854C502.222 333.854 504.168 337.602 512.167 337.249L514.917 335.069Z" fill="#00FFF5"/>
<path d="M515.726 335.292C515.726 335.292 517.667 342.685 512.8 347.716C512.8 347.716 509.874 344.669 512.8 337.203L515.726 335.292Z" fill="#00FFF5"/>
<path d="M523.653 328.195C523.653 328.195 523.181 321.907 508.992 323.994C508.992 323.994 508.925 328.049 513.905 329.97C518.886 331.891 521.168 330.271 523.653 328.195Z" fill="#00FFF5"/>
<path d="M524.545 328.153C524.545 328.153 530.543 330.079 525.194 343.397C525.194 343.397 521.236 342.514 520.525 337.213C519.814 331.912 521.92 330.084 524.545 328.153Z" fill="#00FFF5"/>
<path d="M532.556 319.233C532.556 319.233 533.37 308.886 518.87 309.945C518.87 309.945 517.833 319.29 529.998 321.72L532.556 319.233Z" fill="#00FFF5"/>
<path d="M542.138 307.551C542.138 307.551 540.151 295.823 525.656 299.317C525.656 299.317 525.604 309.457 539.772 310.345L542.138 307.551Z" fill="#00FFF5"/>
<path d="M549.141 295.475C549.141 295.475 545.811 284.052 531.451 287.469C531.451 287.469 534.869 297.744 548.187 297.583L549.141 295.475Z" fill="#00FFF5"/>
<path d="M555.792 283.679C555.792 283.679 552.54 271.825 538.672 275.372C538.672 275.372 543.3 286.633 554.874 285.683L555.792 283.679Z" fill="#00FFF5"/>
<path d="M560.078 272.474C560.078 272.474 557.577 257.978 544.649 261.187C544.649 261.187 548.405 274.375 559.128 274.588L560.078 272.474Z" fill="#00FFF5"/>
<path d="M564.098 258.939C564.098 258.939 561.094 244.329 548.016 248.555C548.016 248.555 553.141 262.365 563.17 260.938L564.098 258.939Z" fill="#00FFF5"/>
<path d="M566.567 246.343C566.567 246.343 561.8 231.728 551.688 232.122C551.688 232.122 556.56 247.558 565.722 249.256L566.567 246.343Z" fill="#00FFF5"/>
<path d="M568.165 234.049C568.165 234.049 562.978 216.458 554.75 217.813C554.75 217.813 558.34 231.26 567.875 236.79L568.165 234.049Z" fill="#00FFF5"/>
<path d="M569.068 219.381C569.068 219.381 564.202 204.724 556.099 204.138C556.099 204.138 559.409 218.561 568.908 223.192L569.068 219.381Z" fill="#00FFF5"/>
<path d="M570.049 205.695C570.049 205.695 563.984 191.023 558.636 190.69C558.636 190.69 561.271 205.14 569.53 208.104L570.049 205.695Z" fill="#00FFF5"/>
<path d="M570.718 192.965C570.718 192.965 566.988 177.03 561.629 175.707C561.629 175.707 562.36 188.744 570.179 194.159L570.718 192.965Z" fill="#00FFF5"/>
<path d="M572.742 176.288C572.742 176.288 568.819 163.583 564.477 161.647C564.477 161.647 565.333 176.626 571.74 179.393L572.742 176.288Z" fill="#00FFF5"/>
<path d="M574.417 165.385L575.206 142.987C575.206 142.987 567.087 159.871 573.831 169.315L574.417 165.385Z" fill="#00FFF5"/>
<path d="M580.684 143.106C580.684 143.106 586.531 126.751 587.947 125.838C587.947 125.838 576.482 136.45 577.602 150.1L580.684 143.106Z" fill="#00FFF5"/>
<path d="M532.95 319.155C532.95 319.155 543.233 317.811 542.927 332.353C542.927 332.353 533.635 333.869 530.6 321.84L532.95 319.155Z" fill="#00FFF5"/>
<path d="M542.626 307.157C542.626 307.157 554.506 307.12 553.52 322.006C553.52 322.006 543.544 323.792 540.255 309.971L542.626 307.157Z" fill="#00FFF5"/>
<path d="M549.256 296.435C549.256 296.435 560.041 291.373 566.941 304.441C566.941 304.441 556.981 308.657 548.301 298.548L549.256 296.435Z" fill="#00FFF5"/>
<path d="M556.031 283.788C556.031 283.788 567.076 278.404 573.561 291.166C573.561 291.166 562.054 295.132 555.118 285.807L556.031 283.788Z" fill="#00FFF5"/>
<path d="M559.938 272.791C559.938 272.791 570.568 262.63 579.05 272.905C579.05 272.905 568.192 281.269 559.45 275.055L559.938 272.791Z" fill="#00FFF5"/>
<path d="M563.497 258.591C563.497 258.591 574.189 248.207 582.604 259.069C582.604 259.069 570.604 267.599 563.113 260.772L563.497 258.591Z" fill="#00FFF5"/>
<path d="M565.494 245.928C565.494 245.928 573.733 232.948 583.434 235.845C583.434 235.845 574.884 249.588 565.587 248.976L565.494 245.928Z" fill="#00FFF5"/>
<path d="M567.922 233.965C567.922 233.965 576.222 217.621 584.077 220.466C584.077 220.466 578.09 233.031 567.709 236.722L567.922 233.965Z" fill="#00FFF5"/>
<path d="M568.498 218.53C568.498 218.53 577.032 205.664 585.026 207.237C585.026 207.237 578.049 220.285 567.667 222.253L568.498 218.53Z" fill="#00FFF5"/>
<path d="M569.162 205.41C569.162 205.41 575.777 190.971 581.151 190.872C581.151 190.872 577.976 205.207 569.608 207.86L569.162 205.41Z" fill="#00FFF5"/>
<path d="M570.459 192.653C570.459 192.653 577.81 178.032 583.335 178.001C583.335 178.001 579.574 190.503 570.703 193.935L570.459 192.653Z" fill="#00FFF5"/>
<path d="M571.564 177.202C571.564 177.202 577.063 165.105 581.618 163.734C581.618 163.734 578.869 178.479 572.171 180.41L571.564 177.202Z" fill="#00FFF5"/>
<path d="M575.071 164.944L587.361 146.206C587.361 146.206 584.212 164.689 573.276 168.531L575.071 164.944Z" fill="#00FFF5"/>
<path d="M583.506 144.617C583.506 144.617 597.789 134.752 598.307 133.158C598.307 133.158 591.044 146.974 577.556 149.415L583.506 144.617Z" fill="#00FFF5"/>
<path d="M584.363 140.178C584.363 140.178 600.762 124.399 604.948 124.415C604.948 124.415 591.423 125.033 583.968 139.337L584.363 140.178Z" fill="#00FFF5"/>
<path d="M571.725 179.543L572.321 179.621C575.403 155.484 579.896 141.201 584.969 139.451L584.772 138.88C579.392 140.749 574.868 154.814 571.725 179.543Z" fill="#444053"/>
<path d="M567.19 237.268L568.093 237.34C568.285 235.087 568.43 232.782 568.529 230.482C569.39 210.503 570.723 192.155 572.477 178.401L571.958 177.752C570.199 191.537 568.487 210.436 567.626 230.445C567.528 232.73 567.382 235.025 567.19 237.268Z" fill="#444053"/>
<path d="M498.087 346.585C498.243 346.517 514.134 339.414 530.626 322.478C540.289 312.559 548.317 301.168 554.413 288.73C562.039 273.191 566.687 254.095 568.244 235.544L567.305 235.985C563.803 277.625 544.862 306.077 529.801 321.575C513.469 338.36 497.755 345.39 497.6 345.458L498.087 346.585Z" fill="#444053"/>
<path d="M539.233 44.2512H40.7358C39.558 44.2512 38.4284 44.7195 37.5956 45.5529C36.7628 46.3864 36.2949 47.5168 36.2949 48.6955V61.6443H543.674V48.6955C543.674 47.5168 543.206 46.3864 542.373 45.5529C541.54 44.7195 540.411 44.2512 539.233 44.2512Z" fill="#3F3D56"/>
<path d="M36.2949 61.6443V353.038C36.2949 355.415 37.2383 357.694 38.9176 359.375C40.5969 361.055 42.8744 362 45.2493 362H534.719C537.094 362 539.372 361.055 541.051 359.375C542.73 357.694 543.674 355.415 543.674 353.038V61.6443H36.2949Z" fill="white"/>
<path opacity="0.8" d="M44.3305 54.8948C45.4766 54.8948 46.4057 53.965 46.4057 52.818C46.4057 51.671 45.4766 50.7412 44.3305 50.7412C43.1845 50.7412 42.2554 51.671 42.2554 52.818C42.2554 53.965 43.1845 54.8948 44.3305 54.8948Z" fill="#FA5959"/>
<path opacity="0.8" d="M50.0376 54.8948C51.1837 54.8948 52.1127 53.965 52.1127 52.818C52.1127 51.671 51.1837 50.7412 50.0376 50.7412C48.8915 50.7412 47.9624 51.671 47.9624 52.818C47.9624 53.965 48.8915 54.8948 50.0376 54.8948Z" fill="#FED253"/>
<path opacity="0.8" d="M55.7441 54.8948C56.8902 54.8948 57.8193 53.965 57.8193 52.818C57.8193 51.671 56.8902 50.7412 55.7441 50.7412C54.598 50.7412 53.6689 51.671 53.6689 52.818C53.6689 53.965 54.598 54.8948 55.7441 54.8948Z" fill="#8CCF4D"/>
<path opacity="0.05" d="M491.229 110.23H83.458V289.675H491.229V110.23Z" fill="black"/>
<path d="M488.116 111.591H86.5708V287.079H488.116V111.591Z" fill="#3F3D56"/>
<path d="M196.036 156.756C188.135 156.756 180.412 159.101 173.843 163.493C167.273 167.886 162.153 174.13 159.13 181.435C156.106 188.74 155.315 196.778 156.856 204.533C158.398 212.288 162.202 219.412 167.789 225.003C173.376 230.594 180.494 234.401 188.243 235.944C195.992 237.487 204.024 236.695 211.323 233.669C218.622 230.643 224.861 225.519 229.251 218.945C233.64 212.37 235.983 204.641 235.983 196.734C235.983 191.484 234.95 186.285 232.942 181.435C230.935 176.585 227.992 172.177 224.283 168.465C220.573 164.753 216.17 161.808 211.323 159.799C206.476 157.79 201.282 156.756 196.036 156.756ZM203.2 197.695V216.624H189.079V197.695C187.125 196.214 185.684 194.157 184.961 191.813C184.238 189.469 184.269 186.958 185.049 184.632C185.83 182.307 187.32 180.286 189.31 178.854C191.3 177.422 193.689 176.652 196.14 176.652C198.591 176.652 200.98 177.422 202.969 178.854C204.959 180.286 206.45 182.307 207.23 184.632C208.01 186.958 208.041 189.469 207.318 191.813C206.595 194.157 205.155 196.214 203.2 197.695Z" fill="#00FFF5"/>
<path opacity="0.05" d="M196.036 156.756C188.135 156.756 180.412 159.101 173.843 163.493C167.273 167.886 162.153 174.13 159.13 181.435C156.106 188.74 155.315 196.778 156.856 204.533C158.398 212.288 162.202 219.412 167.789 225.003C173.376 230.594 180.494 234.401 188.243 235.944C195.992 237.487 204.024 236.695 211.323 233.669C218.622 230.643 224.861 225.519 229.251 218.945C233.64 212.37 235.983 204.641 235.983 196.734C235.983 191.484 234.95 186.285 232.942 181.435C230.935 176.585 227.992 172.177 224.283 168.465C220.573 164.753 216.17 161.808 211.323 159.799C206.476 157.79 201.282 156.756 196.036 156.756ZM203.2 197.695V216.624H189.079V197.695C187.125 196.214 185.684 194.157 184.961 191.813C184.238 189.469 184.269 186.958 185.049 184.632C185.83 182.307 187.32 180.286 189.31 178.854C191.3 177.422 193.689 176.652 196.14 176.652C198.591 176.652 200.98 177.422 202.969 178.854C204.959 180.286 206.45 182.307 207.23 184.632C208.01 186.958 208.041 189.469 207.318 191.813C206.595 194.157 205.155 196.214 203.2 197.695Z" fill="black"/>
<path d="M196.036 145.333C185.878 145.333 175.948 148.348 167.501 153.996C159.055 159.644 152.472 167.672 148.585 177.064C144.698 186.456 143.68 196.791 145.662 206.762C147.644 216.732 152.536 225.891 159.718 233.08C166.901 240.268 176.053 245.163 186.016 247.147C195.979 249.13 206.306 248.112 215.691 244.222C225.075 240.331 233.097 233.743 238.74 225.291C244.384 216.838 247.396 206.9 247.396 196.734C247.396 183.102 241.985 170.028 232.353 160.388C222.721 150.749 209.657 145.333 196.036 145.333ZM205.244 197.97V222.304H187.087V197.97C184.573 196.066 182.72 193.42 181.79 190.406C180.86 187.392 180.9 184.162 181.903 181.171C182.906 178.181 184.823 175.581 187.382 173.739C189.941 171.898 193.013 170.907 196.165 170.907C199.318 170.907 202.39 171.898 204.949 173.739C207.508 175.581 209.425 178.181 210.428 181.171C211.431 184.162 211.471 187.392 210.541 190.406C209.61 193.42 207.758 196.066 205.244 197.97Z" fill="#00FFF5"/>
<path d="M434.681 189.99H268.667V207.642H434.681V189.99Z" fill="white"/>
<path d="M434.68 222.18H398.884V239.832H434.68V222.18Z" fill="#00FFF5"/>
<path d="M285.009 198.551H282.005L284.677 195.882C284.725 195.833 284.751 195.767 284.751 195.698C284.751 195.629 284.725 195.563 284.677 195.514C284.653 195.489 284.624 195.47 284.592 195.457C284.561 195.444 284.527 195.437 284.493 195.437C284.458 195.437 284.424 195.444 284.393 195.457C284.361 195.47 284.333 195.489 284.308 195.514L281.637 198.188V195.176C281.637 195.107 281.609 195.041 281.561 194.993C281.512 194.944 281.446 194.917 281.377 194.917C281.309 194.918 281.244 194.946 281.195 194.994C281.147 195.043 281.119 195.108 281.118 195.176V198.188L278.451 195.498C278.427 195.474 278.398 195.455 278.367 195.441C278.335 195.428 278.301 195.421 278.267 195.421C278.233 195.421 278.199 195.428 278.167 195.441C278.136 195.455 278.107 195.474 278.083 195.498C278.035 195.548 278.008 195.614 278.008 195.683C278.008 195.751 278.035 195.817 278.083 195.867L280.755 198.536H277.746C277.677 198.537 277.612 198.565 277.564 198.613C277.515 198.661 277.488 198.727 277.486 198.795C277.486 198.864 277.514 198.93 277.562 198.979C277.611 199.027 277.677 199.055 277.746 199.055H280.755L278.083 201.729C278.035 201.778 278.008 201.844 278.008 201.913C278.008 201.982 278.035 202.048 278.083 202.097C278.133 202.144 278.199 202.17 278.267 202.17C278.335 202.17 278.401 202.144 278.451 202.097L281.118 199.423V202.43C281.118 202.498 281.145 202.564 281.194 202.613C281.242 202.662 281.308 202.689 281.377 202.689C281.446 202.689 281.512 202.662 281.561 202.613C281.609 202.564 281.637 202.498 281.637 202.43V199.423L284.308 202.097C284.358 202.144 284.424 202.17 284.493 202.17C284.561 202.17 284.627 202.144 284.677 202.097C284.725 202.048 284.751 201.982 284.751 201.913C284.751 201.844 284.725 201.778 284.677 201.729L282.005 199.055H285.009C285.078 199.055 285.144 199.027 285.192 198.979C285.241 198.93 285.268 198.864 285.268 198.795C285.264 198.729 285.235 198.667 285.187 198.622C285.139 198.576 285.075 198.551 285.009 198.551Z" fill="#00FFF5"/>
<path d="M295.903 198.551H292.9L295.571 195.882C295.619 195.833 295.646 195.767 295.646 195.698C295.646 195.629 295.619 195.563 295.571 195.514C295.547 195.489 295.519 195.47 295.487 195.457C295.455 195.444 295.421 195.437 295.387 195.437C295.353 195.437 295.319 195.444 295.287 195.457C295.256 195.47 295.227 195.489 295.203 195.514L292.531 198.188V195.176C292.531 195.107 292.504 195.041 292.455 194.993C292.407 194.944 292.341 194.917 292.272 194.917C292.203 194.918 292.138 194.946 292.09 194.994C292.041 195.043 292.014 195.108 292.012 195.176V198.188L289.346 195.498C289.322 195.474 289.293 195.455 289.261 195.441C289.23 195.428 289.196 195.421 289.162 195.421C289.127 195.421 289.093 195.428 289.062 195.441C289.03 195.455 289.002 195.474 288.977 195.498C288.93 195.548 288.903 195.614 288.903 195.683C288.903 195.751 288.93 195.817 288.977 195.867L291.649 198.536H288.64C288.572 198.537 288.507 198.565 288.458 198.613C288.41 198.661 288.382 198.727 288.381 198.795C288.381 198.864 288.408 198.93 288.457 198.979C288.505 199.027 288.571 199.055 288.64 199.055H291.649L288.977 201.729C288.93 201.778 288.903 201.844 288.903 201.913C288.903 201.982 288.93 202.048 288.977 202.097C289.027 202.144 289.093 202.17 289.162 202.17C289.23 202.17 289.296 202.144 289.346 202.097L292.012 199.423V202.43C292.012 202.498 292.04 202.564 292.088 202.613C292.137 202.662 292.203 202.689 292.272 202.689C292.341 202.689 292.407 202.662 292.455 202.613C292.504 202.564 292.531 202.498 292.531 202.43V199.423L295.203 202.097C295.253 202.144 295.319 202.17 295.387 202.17C295.456 202.17 295.521 202.144 295.571 202.097C295.619 202.048 295.646 201.982 295.646 201.913C295.646 201.844 295.619 201.778 295.571 201.729L292.9 199.055H295.903C295.972 199.055 296.038 199.027 296.087 198.979C296.135 198.93 296.163 198.864 296.163 198.795C296.159 198.729 296.13 198.667 296.081 198.622C296.033 198.576 295.97 198.551 295.903 198.551Z" fill="#00FFF5"/>
<path d="M306.798 198.551H303.795L306.466 195.882C306.514 195.833 306.541 195.767 306.541 195.698C306.541 195.629 306.514 195.563 306.466 195.514C306.442 195.489 306.414 195.47 306.382 195.457C306.35 195.444 306.316 195.437 306.282 195.437C306.248 195.437 306.214 195.444 306.182 195.457C306.151 195.47 306.122 195.489 306.098 195.514L303.426 198.188V195.176C303.426 195.107 303.399 195.041 303.35 194.993C303.302 194.944 303.236 194.917 303.167 194.917C303.098 194.918 303.033 194.946 302.985 194.994C302.936 195.043 302.909 195.108 302.907 195.176V198.188L300.241 195.498C300.217 195.474 300.188 195.455 300.156 195.441C300.125 195.428 300.091 195.421 300.057 195.421C300.022 195.421 299.988 195.428 299.957 195.441C299.925 195.455 299.897 195.474 299.872 195.498C299.825 195.548 299.798 195.614 299.798 195.683C299.798 195.751 299.825 195.817 299.872 195.867L302.544 198.536H299.535C299.467 198.537 299.402 198.565 299.353 198.613C299.305 198.661 299.277 198.727 299.276 198.795C299.276 198.864 299.303 198.93 299.352 198.979C299.4 199.027 299.466 199.055 299.535 199.055H302.544L299.872 201.729C299.825 201.778 299.798 201.844 299.798 201.913C299.798 201.982 299.825 202.048 299.872 202.097C299.922 202.144 299.988 202.17 300.057 202.17C300.125 202.17 300.191 202.144 300.241 202.097L302.907 199.423V202.43C302.907 202.498 302.935 202.564 302.983 202.613C303.032 202.662 303.098 202.689 303.167 202.689C303.236 202.689 303.302 202.662 303.35 202.613C303.399 202.564 303.426 202.498 303.426 202.43V199.423L306.098 202.097C306.148 202.144 306.214 202.17 306.282 202.17C306.351 202.17 306.416 202.144 306.466 202.097C306.514 202.048 306.541 201.982 306.541 201.913C306.541 201.844 306.514 201.778 306.466 201.729L303.795 199.055H306.798C306.867 199.055 306.933 199.027 306.982 198.979C307.03 198.93 307.058 198.864 307.058 198.795C307.054 198.729 307.025 198.667 306.976 198.622C306.928 198.576 306.865 198.551 306.798 198.551Z" fill="#00FFF5"/>
<path d="M317.693 198.551H314.689L317.361 195.882C317.409 195.833 317.435 195.767 317.435 195.698C317.435 195.629 317.409 195.563 317.361 195.514C317.337 195.489 317.308 195.47 317.276 195.457C317.245 195.444 317.211 195.437 317.177 195.437C317.142 195.437 317.109 195.444 317.077 195.457C317.045 195.47 317.017 195.489 316.993 195.514L314.321 198.188V195.176C314.321 195.107 314.293 195.041 314.245 194.993C314.196 194.944 314.13 194.917 314.061 194.917C313.993 194.918 313.928 194.946 313.879 194.994C313.831 195.043 313.803 195.108 313.802 195.176V198.188L311.135 195.498C311.111 195.474 311.083 195.455 311.051 195.441C311.019 195.428 310.985 195.421 310.951 195.421C310.917 195.421 310.883 195.428 310.851 195.441C310.82 195.455 310.791 195.474 310.767 195.498C310.719 195.548 310.692 195.614 310.692 195.683C310.692 195.751 310.719 195.817 310.767 195.867L313.439 198.536H310.43C310.361 198.537 310.296 198.565 310.248 198.613C310.199 198.661 310.172 198.727 310.17 198.795C310.17 198.864 310.198 198.93 310.246 198.979C310.295 199.027 310.361 199.055 310.43 199.055H313.439L310.767 201.729C310.719 201.778 310.692 201.844 310.692 201.913C310.692 201.982 310.719 202.048 310.767 202.097C310.817 202.144 310.883 202.17 310.951 202.17C311.02 202.17 311.085 202.144 311.135 202.097L313.802 199.423V202.43C313.802 202.498 313.829 202.564 313.878 202.613C313.927 202.662 313.993 202.689 314.061 202.689C314.13 202.689 314.196 202.662 314.245 202.613C314.293 202.564 314.321 202.498 314.321 202.43V199.423L316.993 202.097C317.042 202.144 317.108 202.17 317.177 202.17C317.245 202.17 317.311 202.144 317.361 202.097C317.409 202.048 317.435 201.982 317.435 201.913C317.435 201.844 317.409 201.778 317.361 201.729L314.689 199.055H317.693C317.762 199.055 317.828 199.027 317.876 198.979C317.925 198.93 317.952 198.864 317.952 198.795C317.948 198.729 317.919 198.667 317.871 198.622C317.823 198.576 317.759 198.551 317.693 198.551Z" fill="#00FFF5"/>
<path d="M328.587 198.551H325.584L328.255 195.882C328.303 195.833 328.33 195.767 328.33 195.698C328.33 195.629 328.303 195.563 328.255 195.514C328.231 195.489 328.203 195.47 328.171 195.457C328.139 195.444 328.105 195.437 328.071 195.437C328.037 195.437 328.003 195.444 327.971 195.457C327.94 195.47 327.911 195.489 327.887 195.514L325.215 198.188V195.176C325.215 195.107 325.188 195.041 325.139 194.993C325.091 194.944 325.025 194.917 324.956 194.917C324.888 194.918 324.822 194.946 324.774 194.994C324.726 195.043 324.698 195.108 324.696 195.176V198.188L322.03 195.498C322.006 195.474 321.977 195.455 321.945 195.441C321.914 195.428 321.88 195.421 321.846 195.421C321.811 195.421 321.778 195.428 321.746 195.441C321.714 195.455 321.686 195.474 321.662 195.498C321.614 195.548 321.587 195.614 321.587 195.683C321.587 195.751 321.614 195.817 321.662 195.867L324.333 198.536H321.324C321.256 198.537 321.191 198.565 321.142 198.613C321.094 198.661 321.066 198.727 321.065 198.795C321.065 198.864 321.092 198.93 321.141 198.979C321.19 199.027 321.256 199.055 321.324 199.055H324.333L321.662 201.729C321.614 201.778 321.587 201.844 321.587 201.913C321.587 201.982 321.614 202.048 321.662 202.097C321.711 202.144 321.777 202.17 321.846 202.17C321.914 202.17 321.98 202.144 322.03 202.097L324.696 199.423V202.43C324.696 202.498 324.724 202.564 324.772 202.613C324.821 202.662 324.887 202.689 324.956 202.689C325.025 202.689 325.091 202.662 325.139 202.613C325.188 202.564 325.215 202.498 325.215 202.43V199.423L327.887 202.097C327.937 202.144 328.003 202.17 328.071 202.17C328.14 202.17 328.205 202.144 328.255 202.097C328.303 202.048 328.33 201.982 328.33 201.913C328.33 201.844 328.303 201.778 328.255 201.729L325.584 199.055H328.587C328.656 199.055 328.722 199.027 328.771 198.979C328.819 198.93 328.847 198.864 328.847 198.795C328.843 198.729 328.814 198.667 328.766 198.622C328.717 198.576 328.654 198.551 328.587 198.551Z" fill="#00FFF5"/>
<path d="M339.482 198.551H336.478L339.15 195.882C339.198 195.833 339.225 195.767 339.225 195.698C339.225 195.629 339.198 195.563 339.15 195.514C339.126 195.489 339.097 195.47 339.066 195.457C339.034 195.444 339 195.437 338.966 195.437C338.931 195.437 338.898 195.444 338.866 195.457C338.834 195.47 338.806 195.489 338.782 195.514L336.11 198.188V195.176C336.11 195.107 336.082 195.041 336.034 194.993C335.985 194.944 335.919 194.917 335.85 194.917C335.782 194.918 335.717 194.946 335.668 194.994C335.62 195.043 335.592 195.108 335.591 195.176V198.188L332.924 195.498C332.9 195.474 332.872 195.455 332.84 195.441C332.808 195.428 332.774 195.421 332.74 195.421C332.706 195.421 332.672 195.428 332.64 195.441C332.609 195.455 332.58 195.474 332.556 195.498C332.508 195.548 332.481 195.614 332.481 195.683C332.481 195.751 332.508 195.817 332.556 195.867L335.228 198.536H332.219C332.15 198.537 332.085 198.565 332.037 198.613C331.989 198.661 331.961 198.727 331.959 198.795C331.959 198.864 331.987 198.93 332.035 198.979C332.084 199.027 332.15 199.055 332.219 199.055H335.228L332.556 201.729C332.508 201.778 332.481 201.844 332.481 201.913C332.481 201.982 332.508 202.048 332.556 202.097C332.606 202.144 332.672 202.17 332.74 202.17C332.809 202.17 332.874 202.144 332.924 202.097L335.591 199.423V202.43C335.591 202.498 335.618 202.564 335.667 202.613C335.716 202.662 335.782 202.689 335.85 202.689C335.919 202.689 335.985 202.662 336.034 202.613C336.082 202.564 336.11 202.498 336.11 202.43V199.423L338.782 202.097C338.832 202.144 338.897 202.17 338.966 202.17C339.034 202.17 339.1 202.144 339.15 202.097C339.198 202.048 339.225 201.982 339.225 201.913C339.225 201.844 339.198 201.778 339.15 201.729L336.478 199.055H339.482C339.551 199.055 339.617 199.027 339.665 198.979C339.714 198.93 339.741 198.864 339.741 198.795C339.737 198.729 339.708 198.667 339.66 198.622C339.612 198.576 339.548 198.551 339.482 198.551Z" fill="#00FFF5"/>
<path d="M350.377 198.551H347.373L350.045 195.882C350.093 195.833 350.12 195.767 350.12 195.698C350.12 195.629 350.093 195.563 350.045 195.514C350.021 195.489 349.992 195.47 349.961 195.457C349.929 195.444 349.895 195.437 349.861 195.437C349.827 195.437 349.793 195.444 349.761 195.457C349.729 195.47 349.701 195.489 349.677 195.514L347.005 198.188V195.176C347.005 195.107 346.977 195.041 346.929 194.993C346.88 194.944 346.814 194.917 346.745 194.917C346.677 194.918 346.612 194.946 346.563 194.994C346.515 195.043 346.487 195.108 346.486 195.176V198.188L343.819 195.498C343.795 195.474 343.767 195.455 343.735 195.441C343.703 195.428 343.669 195.421 343.635 195.421C343.601 195.421 343.567 195.428 343.536 195.441C343.504 195.455 343.475 195.474 343.451 195.498C343.403 195.548 343.376 195.614 343.376 195.683C343.376 195.751 343.403 195.817 343.451 195.867L346.123 198.536H343.114C343.046 198.537 342.98 198.565 342.932 198.613C342.884 198.661 342.856 198.727 342.854 198.795C342.854 198.864 342.882 198.93 342.93 198.979C342.979 199.027 343.045 199.055 343.114 199.055H346.123L343.451 201.729C343.403 201.778 343.376 201.844 343.376 201.913C343.376 201.982 343.403 202.048 343.451 202.097C343.501 202.144 343.567 202.17 343.635 202.17C343.704 202.17 343.769 202.144 343.819 202.097L346.486 199.423V202.43C346.486 202.498 346.513 202.564 346.562 202.613C346.611 202.662 346.677 202.689 346.745 202.689C346.814 202.689 346.88 202.662 346.929 202.613C346.977 202.564 347.005 202.498 347.005 202.43V199.423L349.677 202.097C349.727 202.144 349.792 202.17 349.861 202.17C349.929 202.17 349.995 202.144 350.045 202.097C350.093 202.048 350.12 201.982 350.12 201.913C350.12 201.844 350.093 201.778 350.045 201.729L347.373 199.055H350.377C350.446 199.055 350.512 199.027 350.56 198.979C350.609 198.93 350.636 198.864 350.636 198.795C350.632 198.729 350.603 198.667 350.555 198.622C350.507 198.576 350.443 198.551 350.377 198.551Z" fill="#00FFF5"/>
<path d="M361.272 198.551H358.268L360.939 195.882C360.987 195.833 361.014 195.767 361.014 195.698C361.014 195.629 360.987 195.563 360.939 195.514C360.915 195.489 360.887 195.47 360.855 195.457C360.823 195.444 360.79 195.437 360.755 195.437C360.721 195.437 360.687 195.444 360.656 195.457C360.624 195.47 360.595 195.489 360.571 195.514L357.899 198.188V195.176C357.899 195.107 357.872 195.041 357.823 194.993C357.775 194.944 357.709 194.917 357.64 194.917C357.572 194.918 357.506 194.946 357.458 194.994C357.41 195.043 357.382 195.108 357.381 195.176V198.188L354.714 195.498C354.69 195.474 354.661 195.455 354.63 195.441C354.598 195.428 354.564 195.421 354.53 195.421C354.496 195.421 354.462 195.428 354.43 195.441C354.398 195.455 354.37 195.474 354.346 195.498C354.298 195.548 354.271 195.614 354.271 195.683C354.271 195.751 354.298 195.817 354.346 195.867L357.017 198.536H354.008C353.94 198.537 353.875 198.565 353.826 198.613C353.778 198.661 353.75 198.727 353.749 198.795C353.749 198.864 353.776 198.93 353.825 198.979C353.874 199.027 353.94 199.055 354.008 199.055H357.017L354.346 201.729C354.298 201.778 354.271 201.844 354.271 201.913C354.271 201.982 354.298 202.048 354.346 202.097C354.396 202.144 354.461 202.17 354.53 202.17C354.598 202.17 354.664 202.144 354.714 202.097L357.381 199.423V202.43C357.381 202.498 357.408 202.564 357.457 202.613C357.505 202.662 357.571 202.689 357.64 202.689C357.709 202.689 357.775 202.662 357.823 202.613C357.872 202.564 357.899 202.498 357.899 202.43V199.423L360.571 202.097C360.621 202.144 360.687 202.17 360.755 202.17C360.824 202.17 360.89 202.144 360.939 202.097C360.987 202.048 361.014 201.982 361.014 201.913C361.014 201.844 360.987 201.778 360.939 201.729L358.268 199.055H361.272C361.34 199.055 361.406 199.027 361.455 198.979C361.504 198.93 361.531 198.864 361.531 198.795C361.527 198.729 361.498 198.667 361.45 198.622C361.401 198.576 361.338 198.551 361.272 198.551Z" fill="#00FFF5"/>
<path d="M372.166 198.551H369.162L371.834 195.882C371.882 195.833 371.909 195.767 371.909 195.698C371.909 195.629 371.882 195.563 371.834 195.514C371.81 195.489 371.781 195.47 371.75 195.457C371.718 195.444 371.684 195.437 371.65 195.437C371.616 195.437 371.582 195.444 371.55 195.457C371.518 195.47 371.49 195.489 371.466 195.514L368.794 198.188V195.176C368.794 195.107 368.767 195.041 368.718 194.993C368.669 194.944 368.603 194.917 368.535 194.917C368.466 194.918 368.401 194.946 368.353 194.994C368.304 195.043 368.276 195.108 368.275 195.176V198.188L365.609 195.498C365.584 195.474 365.556 195.455 365.524 195.441C365.492 195.428 365.459 195.421 365.424 195.421C365.39 195.421 365.356 195.428 365.325 195.441C365.293 195.455 365.264 195.474 365.24 195.498C365.192 195.548 365.166 195.614 365.166 195.683C365.166 195.751 365.192 195.817 365.24 195.867L367.912 198.536H364.903C364.835 198.537 364.769 198.565 364.721 198.613C364.673 198.661 364.645 198.727 364.644 198.795C364.644 198.864 364.671 198.93 364.72 198.979C364.768 199.027 364.834 199.055 364.903 199.055H367.912L365.24 201.729C365.192 201.778 365.166 201.844 365.166 201.913C365.166 201.982 365.192 202.048 365.24 202.097C365.29 202.144 365.356 202.17 365.424 202.17C365.493 202.17 365.559 202.144 365.609 202.097L368.275 199.423V202.43C368.275 202.498 368.302 202.564 368.351 202.613C368.4 202.662 368.466 202.689 368.535 202.689C368.603 202.689 368.669 202.662 368.718 202.613C368.767 202.564 368.794 202.498 368.794 202.43V199.423L371.466 202.097C371.516 202.144 371.581 202.17 371.65 202.17C371.718 202.17 371.784 202.144 371.834 202.097C371.882 202.048 371.909 201.982 371.909 201.913C371.909 201.844 371.882 201.778 371.834 201.729L369.162 199.055H372.166C372.235 199.055 372.301 199.027 372.349 198.979C372.398 198.93 372.425 198.864 372.425 198.795C372.421 198.729 372.392 198.667 372.344 198.622C372.296 198.576 372.232 198.551 372.166 198.551Z" fill="#00FFF5"/>
<path d="M383.061 198.551H380.057L382.729 195.882C382.776 195.833 382.803 195.767 382.803 195.698C382.803 195.629 382.776 195.563 382.729 195.514C382.704 195.489 382.676 195.47 382.644 195.457C382.613 195.444 382.579 195.437 382.544 195.437C382.51 195.437 382.476 195.444 382.445 195.457C382.413 195.47 382.384 195.489 382.36 195.514L379.688 198.188V195.176C379.688 195.107 379.661 195.041 379.612 194.993C379.564 194.944 379.498 194.917 379.429 194.917C379.361 194.918 379.295 194.946 379.247 194.994C379.199 195.043 379.171 195.108 379.17 195.176V198.188L376.503 195.498C376.479 195.474 376.45 195.455 376.419 195.441C376.387 195.428 376.353 195.421 376.319 195.421C376.285 195.421 376.251 195.428 376.219 195.441C376.187 195.455 376.159 195.474 376.135 195.498C376.087 195.548 376.06 195.614 376.06 195.683C376.06 195.751 376.087 195.817 376.135 195.867L378.806 198.536H375.797C375.729 198.537 375.664 198.565 375.616 198.613C375.567 198.661 375.539 198.727 375.538 198.795C375.538 198.864 375.565 198.93 375.614 198.979C375.663 199.027 375.729 199.055 375.797 199.055H378.806L376.135 201.729C376.087 201.778 376.06 201.844 376.06 201.913C376.06 201.982 376.087 202.048 376.135 202.097C376.185 202.144 376.25 202.17 376.319 202.17C376.387 202.17 376.453 202.144 376.503 202.097L379.17 199.423V202.43C379.17 202.498 379.197 202.564 379.246 202.613C379.294 202.662 379.36 202.689 379.429 202.689C379.498 202.689 379.564 202.662 379.612 202.613C379.661 202.564 379.688 202.498 379.688 202.43V199.423L382.36 202.097C382.41 202.144 382.476 202.17 382.544 202.17C382.613 202.17 382.679 202.144 382.729 202.097C382.776 202.048 382.803 201.982 382.803 201.913C382.803 201.844 382.776 201.778 382.729 201.729L380.057 199.055H383.061C383.129 199.055 383.195 199.027 383.244 198.979C383.293 198.93 383.32 198.864 383.32 198.795C383.316 198.729 383.287 198.667 383.239 198.622C383.19 198.576 383.127 198.551 383.061 198.551Z" fill="#00FFF5"/>
<path d="M393.955 198.551H390.951L393.623 195.882C393.671 195.833 393.698 195.767 393.698 195.698C393.698 195.629 393.671 195.563 393.623 195.514C393.599 195.489 393.57 195.47 393.539 195.457C393.507 195.444 393.473 195.437 393.439 195.437C393.405 195.437 393.371 195.444 393.339 195.457C393.307 195.47 393.279 195.489 393.255 195.514L390.583 198.188V195.176C390.583 195.107 390.556 195.041 390.507 194.993C390.458 194.944 390.392 194.917 390.324 194.917C390.255 194.918 390.19 194.946 390.142 194.994C390.093 195.043 390.065 195.108 390.064 195.176V198.188L387.398 195.498C387.373 195.474 387.345 195.455 387.313 195.441C387.282 195.428 387.248 195.421 387.213 195.421C387.179 195.421 387.145 195.428 387.114 195.441C387.082 195.455 387.053 195.474 387.029 195.498C386.981 195.548 386.955 195.614 386.955 195.683C386.955 195.751 386.981 195.817 387.029 195.867L389.701 198.536H386.692C386.624 198.537 386.558 198.565 386.51 198.613C386.462 198.661 386.434 198.727 386.433 198.795C386.433 198.864 386.46 198.93 386.509 198.979C386.557 199.027 386.623 199.055 386.692 199.055H389.701L387.029 201.729C386.981 201.778 386.955 201.844 386.955 201.913C386.955 201.982 386.981 202.048 387.029 202.097C387.079 202.144 387.145 202.17 387.213 202.17C387.282 202.17 387.348 202.144 387.398 202.097L390.064 199.423V202.43C390.064 202.498 390.091 202.564 390.14 202.613C390.189 202.662 390.255 202.689 390.324 202.689C390.392 202.689 390.458 202.662 390.507 202.613C390.556 202.564 390.583 202.498 390.583 202.43V199.423L393.255 202.097C393.305 202.144 393.37 202.17 393.439 202.17C393.507 202.17 393.573 202.144 393.623 202.097C393.671 202.048 393.698 201.982 393.698 201.913C393.698 201.844 393.671 201.778 393.623 201.729L390.951 199.055H393.955C394.024 199.055 394.09 199.027 394.138 198.979C394.187 198.93 394.214 198.864 394.214 198.795C394.21 198.729 394.181 198.667 394.133 198.622C394.085 198.576 394.021 198.551 393.955 198.551Z" fill="#00FFF5"/>
<path d="M477.476 261.711C477.461 261.084 477.383 260.459 477.242 259.848C476.775 258.093 475.722 255.969 473.989 255.44C472.2 254.891 470.472 254.161 468.832 253.259C468.521 247.693 469.797 241.998 468.407 236.603C467.888 234.63 467.032 232.74 466.804 230.721C466.519 228.208 467.203 225.529 466.202 223.213C465.414 221.385 463.681 220.098 461.818 219.423C459.956 218.748 457.948 218.566 455.972 218.384C453.481 218.182 445.419 217.227 442.607 219.454C442.414 219.605 442.239 219.779 442.089 219.973C442.027 220.059 441.971 220.149 441.923 220.243L441.897 220.285C441.84 220.393 441.793 220.506 441.757 220.622C441.717 220.75 441.688 220.88 441.668 221.012C441.668 221.053 441.668 221.095 441.668 221.136C441.668 221.178 441.668 221.318 441.668 221.411V221.552C441.668 221.645 441.668 221.739 441.668 221.837C441.668 221.936 441.668 221.91 441.668 221.946C441.705 222.413 441.772 222.881 441.772 223.343C441.778 223.573 441.757 223.803 441.71 224.028C441.537 224.641 441.244 225.212 440.849 225.71L440.755 225.845C440.698 225.928 440.641 226.006 440.589 226.089C440.537 226.172 440.496 226.235 440.454 226.307C440.413 226.38 440.371 226.427 440.335 226.494C440.285 226.58 440.24 226.668 440.2 226.759C440.2 226.811 440.143 226.858 440.122 226.91C440.058 227.05 440.005 227.196 439.967 227.346C439.845 227.797 439.835 228.271 439.936 228.727C440.076 229.309 440.316 229.863 440.646 230.362C440.776 230.575 440.916 230.783 441.061 230.991L441.425 231.484C441.357 231.966 441.32 232.451 441.316 232.938C441.316 234.563 441.685 236.168 442.395 237.63C443.105 239.093 444.137 240.375 445.414 241.38C445.62 243.572 445.597 245.78 445.347 247.968C445.3 248.425 445.243 248.887 445.181 249.344C445.118 249.801 445.072 250.102 445.009 250.481C444.25 250.59 443.477 250.532 442.742 250.31C442.404 250.159 442.057 250.025 441.705 249.91C440.195 249.531 438.654 251.037 437.16 250.58C437.16 250.653 437.119 250.72 437.093 250.788C436.781 250.594 436.422 250.488 436.055 250.481C435.168 250.44 434.447 249.796 433.804 249.188L431.827 247.325C431.698 247.21 431.583 247.081 431.485 246.94C431.378 246.738 431.298 246.524 431.246 246.302C430.914 245.227 430.11 244.37 429.332 243.555C429.184 243.369 428.989 243.227 428.766 243.145C428.68 243.132 428.593 243.132 428.507 243.145C428.454 243.072 428.397 243.003 428.335 242.937C428.201 242.783 428.057 242.637 427.905 242.501C426.961 241.629 426.867 240.881 426.048 239.905C425.333 238.974 424.684 237.994 424.107 236.972C424.04 236.427 423.947 235.866 423.832 235.3C423.571 234.004 423.19 232.736 422.696 231.51L421.659 229.21L421.539 229.329C420.787 228.208 419.983 227.595 419.262 227.74C418.053 227.99 417.456 230.336 417.648 233.405L418.063 236.52C418.063 236.598 418.1 236.676 418.12 236.754C418.046 237.123 418.008 237.498 418.006 237.875C418.006 238.311 418.411 238.633 418.624 239.023C418.964 239.55 419.144 240.165 419.143 240.793C419.117 241.016 419.049 241.229 419.039 241.447C419.067 241.935 419.236 242.404 419.526 242.797L422.12 247.158L422.639 248.072L422.67 248.114C422.834 248.433 423.073 248.707 423.365 248.913C423.467 250.005 423.757 251.072 424.221 252.065C424.31 252.262 424.408 252.449 424.512 252.636C425.209 253.783 426.031 254.85 426.961 255.819L428.195 257.205C429.415 258.565 430.634 259.931 431.957 261.187C432.43 261.691 433.002 262.092 433.638 262.366C433.949 262.49 434.287 262.53 434.619 262.482C434.95 262.434 435.263 262.299 435.526 262.09C435.526 262.734 435.526 263.378 435.526 264.022C435.719 264.034 435.905 264.097 436.065 264.205C436.225 264.312 436.353 264.461 436.437 264.635C436.52 264.809 436.556 265.003 436.54 265.195C436.524 265.387 436.457 265.572 436.346 265.73C435.256 268.529 434.156 271.353 432.507 273.861C433.671 274.55 434.751 275.375 435.723 276.316C436.354 277.016 436.915 277.776 437.399 278.585C437.446 278.97 437.482 279.349 437.503 279.728C437.886 285.916 435.495 292.059 433.352 297.957C432.735 299.628 432.06 301.378 432.112 303.117C431.706 303.368 431.317 303.648 430.95 303.953C431.376 305.064 431.21 306.056 431.163 307.245C431.147 307.958 431.002 308.662 430.732 309.322C430.507 309.779 430.257 310.225 429.985 310.656C428.642 313.029 428.346 315.848 428.076 318.558C427.915 320.194 428.548 322.193 427.806 323.657C426.525 326.17 425.389 328.849 425.212 331.642C425.206 332.271 425.126 332.896 424.974 333.506C424.813 334.025 424.528 334.466 424.382 334.975C424.233 335.657 424.198 336.359 424.279 337.052C424.377 339.541 424.008 342.026 423.189 344.378C422.541 346.231 421.825 348.215 422.333 350.12C421.081 351.436 420.309 353.135 420.139 354.944C420.125 355.406 420.07 355.867 419.973 356.319C419.814 356.782 419.605 357.226 419.35 357.643C418.306 359.547 417.817 361.706 417.939 363.874C416.383 365.987 415.604 368.593 415.143 371.184C414.681 373.775 414.479 376.412 413.887 378.972C413.099 382.357 411.672 385.779 411.392 389.247C409.711 390.322 408.985 392.404 408.663 394.371C408.341 396.339 408.289 398.406 407.464 400.223C407.039 401.168 406.427 402.014 406.022 402.98C405.738 403.749 405.53 404.543 405.4 405.352C405.151 406.619 404.933 408.031 405.239 409.246C404.799 409.713 404.285 410.104 403.719 410.404C403.802 410.082 403.869 409.76 403.926 409.433C402.588 410.648 400.16 410.222 399.091 411.681C398.77 412.152 398.645 412.729 398.742 413.29C398.839 413.851 399.15 414.352 399.61 414.688C399.944 414.892 400.306 415.047 400.684 415.15C403.278 415.98 405.944 416.816 408.611 416.375C408.926 416.341 409.232 416.244 409.509 416.089C409.855 415.834 410.141 415.504 410.344 415.124C410.743 414.49 411.143 413.857 411.537 413.223C412.492 413.509 413.464 413.736 414.447 413.904C414.546 414.734 414.619 415.565 414.655 416.396C415.174 416.5 415.869 416.531 416.113 416.048C416.187 415.865 416.217 415.668 416.201 415.472C416.201 415.103 416.253 414.615 416.284 414.116H416.388C417.971 414.18 419.545 413.862 420.979 413.187C420.424 408.587 422.255 404.091 423.843 399.74C425.518 395.161 426.956 390.498 428.403 385.836C429.441 382.554 430.587 379.377 431.604 376.09C432.884 371.937 434.168 367.783 435.459 363.63C436.019 361.802 436.584 359.995 437.228 358.178C438.582 354.501 440.189 350.922 442.037 347.467C442.556 346.486 443.074 345.515 443.5 344.497C444.019 343.256 444.387 341.958 444.802 340.676C445.706 338.045 446.795 335.48 448.06 333.002C448.096 332.935 448.122 332.873 448.159 332.81C448.579 334.529 448.999 336.273 449.279 338.002C449.658 340.122 449.688 342.29 449.367 344.42C449.118 345.868 448.646 347.301 448.703 348.77C448.781 350.8 449.865 352.644 450.4 354.601C450.744 356.066 450.939 357.562 450.981 359.066C451.126 361.402 452.392 364.024 451.5 366.189C448.724 373.048 450.068 380.794 448.485 387.996C447.671 391.692 445.176 395.166 445.373 398.946C445.511 401.628 445.746 404.304 446.078 406.972C446.158 407.814 446.377 408.637 446.727 409.407C446.934 409.813 447.171 410.201 447.437 410.57C447.209 410.659 447.017 410.892 446.851 411.385C446.426 412.683 446.851 414.293 448.003 415.02C448.472 415.271 448.978 415.446 449.502 415.539C450.208 415.74 450.937 415.841 451.671 415.84C451.899 415.828 452.126 415.8 452.35 415.757C453.152 416.094 453.971 416.389 454.804 416.64C454.804 416.853 454.846 417.065 454.872 417.278C454.873 417.39 454.898 417.499 454.944 417.6C454.991 417.701 455.058 417.792 455.141 417.865C455.271 417.926 455.414 417.951 455.557 417.938H458.374C458.374 417.704 458.374 417.465 458.374 417.232C458.696 417.265 459.022 417.231 459.33 417.131C459.638 417.031 459.922 416.867 460.163 416.65C460.413 416.332 460.59 415.964 460.682 415.57C461.45 412.964 462.213 410.356 462.97 407.746C463.878 404.861 464.256 401.835 464.085 398.816C463.084 389.247 465.284 379.647 464.568 370.052C464.137 364.285 464.433 358.487 465.45 352.794C465.683 351.507 465.969 350.198 466.072 348.916C466.301 346.496 466.021 344.051 466.192 341.647C466.249 340.806 466.363 339.97 466.467 339.134C467.178 333.946 467.55 328.717 467.582 323.48C467.566 321.745 467.459 320.012 467.261 318.288C467.801 318.15 468.292 317.863 468.677 317.458C469.139 316.855 469.019 316.009 469.014 315.241C469.014 313.403 469.787 311.669 470.41 309.934C471.209 307.543 471.863 305.105 472.371 302.635C472.907 300.644 473.199 298.595 473.242 296.534C473.242 296.326 473.232 296.119 473.211 295.911C473.407 295.775 473.57 295.598 473.688 295.392C473.824 295.088 473.908 294.763 473.937 294.431C474.124 293.107 474.316 291.778 474.503 290.449C474.641 289.497 474.778 288.547 474.913 287.599L476.562 276.078C476.703 275.076 476.848 274.079 476.988 273.082L477.418 270.102C477.465 269.749 477.517 269.396 477.553 269.063C478.819 266.945 477.61 264.121 477.476 261.711ZM463.712 304.846C463.1 303.393 462.529 301.902 462.674 300.334H462.617C462.754 299.852 462.73 299.338 462.55 298.87C462.389 298.491 462.109 298.169 461.938 297.79C461.754 297.328 461.659 296.835 461.658 296.337C461.529 293.179 461.778 290.017 462.399 286.918C462.467 286.555 462.539 286.186 462.607 285.823C462.825 285.697 463.024 285.542 463.198 285.361C463.471 285.05 463.697 284.7 463.868 284.322C464.454 283.144 464.988 281.945 465.481 280.724C465.642 280.33 465.875 279.873 466.275 279.774C466.192 282.812 466.503 285.911 465.268 288.653C465.034 289.095 464.859 289.566 464.75 290.054C464.635 290.828 464.957 291.612 464.843 292.38C464.786 292.78 464.615 293.149 464.547 293.543C464.496 293.737 464.497 293.941 464.55 294.134C464.603 294.328 464.705 294.503 464.848 294.644C464.917 294.692 464.992 294.731 465.071 294.758C465.04 294.966 465.014 295.179 464.993 295.381C464.952 295.807 464.931 296.207 464.905 296.456C464.786 297.726 464.739 299.002 464.765 300.277C464.765 301.653 464.817 303.029 464.796 304.431C464.815 304.833 464.748 305.235 464.599 305.61C464.496 305.803 464.363 305.978 464.205 306.129C464.054 305.661 463.888 305.251 463.712 304.846Z" fill="url(#paint0_linear)"/>
<path d="M422.76 244.604C424.343 244.279 424.882 240.379 423.963 235.893C423.045 231.407 421.017 228.033 419.434 228.358C417.851 228.683 417.312 232.583 418.231 237.069C419.149 241.555 421.177 244.928 422.76 244.604Z" fill="#FBBEBE"/>
<path d="M446.934 411.484C446.509 412.772 446.934 414.381 448.086 415.082C448.553 415.331 449.055 415.506 449.575 415.601C450.279 415.8 451.007 415.9 451.738 415.897C452.636 415.856 453.497 415.503 454.395 415.378C454.498 415.352 454.608 415.367 454.701 415.42C454.746 415.468 454.779 415.525 454.799 415.588C454.819 415.651 454.824 415.718 454.815 415.783C454.825 416.294 454.863 416.803 454.929 417.309C454.93 417.421 454.954 417.531 455.001 417.632C455.047 417.733 455.115 417.823 455.199 417.896C455.328 417.957 455.472 417.982 455.614 417.969H458.426C458.489 415.497 458.219 413.027 457.622 410.627C457.583 410.444 457.512 410.268 457.414 410.108C457.175 409.847 456.862 409.665 456.517 409.589C455.829 409.303 455.087 409.173 454.343 409.21C453.435 409.329 452.677 409.916 451.904 410.404C451.131 410.892 450.078 411.323 449.139 411.074C448.2 410.825 447.417 410.041 446.934 411.484Z" fill="#3F3D56"/>
<path d="M405.649 409.205C404.858 410.052 403.889 410.712 402.811 411.136L402.334 411.365C402.268 411.39 402.211 411.435 402.173 411.495C402.164 411.535 402.164 411.577 402.173 411.617C402.182 411.658 402.199 411.695 402.225 411.728C402.622 412.343 403.209 412.811 403.896 413.061C404.584 413.311 405.334 413.33 406.033 413.114C406.342 413.037 406.628 412.888 406.868 412.678C407.263 412.209 407.49 411.62 407.511 411.006C407.668 410.373 407.641 409.709 407.433 409.091C406.712 407.466 406.448 408.203 405.649 409.205Z" fill="#FBBEBE"/>
<path d="M416.429 415.601C416.445 415.798 416.415 415.995 416.341 416.178C416.097 416.655 415.418 416.629 414.888 416.525C414.808 414.764 414.595 413.011 414.25 411.282C413.244 411.235 412.518 412.19 411.978 413.047L410.588 415.253C410.387 415.633 410.103 415.963 409.758 416.219C409.48 416.371 409.175 416.468 408.86 416.505C406.204 416.946 403.522 416.11 400.959 415.279C400.581 415.178 400.22 415.024 399.885 414.822C399.428 414.486 399.118 413.986 399.021 413.427C398.925 412.867 399.048 412.292 399.366 411.822C400.44 410.368 402.852 410.783 404.191 409.579C404.051 410.426 403.822 411.256 403.506 412.055C405.296 411.785 406.5 410.145 407.942 409.049C408.304 408.741 408.74 408.534 409.208 408.447C409.557 408.417 409.909 408.454 410.245 408.556C411.908 408.975 413.464 409.741 414.811 410.804C415.355 411.235 416.206 411.842 416.445 412.507C416.699 413.301 416.429 414.755 416.429 415.601Z" fill="#3F3D56"/>
<path d="M452.117 244.298C458.037 244.298 462.835 239.495 462.835 233.571C462.835 227.647 458.037 222.844 452.117 222.844C446.198 222.844 441.399 227.647 441.399 233.571C441.399 239.495 446.198 244.298 452.117 244.298Z" fill="#FBBEBE"/>
<path d="M473.232 296.902C473.189 298.953 472.898 300.991 472.366 302.972C471.858 305.432 471.203 307.859 470.405 310.241C469.787 311.97 469.014 313.704 469.019 315.536C469.019 316.3 469.144 317.146 468.677 317.748C468.261 318.171 467.737 318.471 467.162 318.615C466.875 318.691 466.61 318.834 466.389 319.032C466.167 319.229 465.995 319.476 465.886 319.752C465.399 319.024 465.034 318.221 464.807 317.374C463.876 314.522 463.012 311.655 462.213 308.771C462.14 308.605 462.108 308.424 462.121 308.243C462.134 308.062 462.19 307.887 462.286 307.733C462.417 307.618 462.571 307.532 462.737 307.479C463.269 307.262 463.756 306.948 464.174 306.554C464.37 306.38 464.532 306.17 464.651 305.937C464.802 305.564 464.871 305.164 464.854 304.763C464.854 303.387 464.854 302.017 464.817 300.641C464.796 299.37 464.844 298.1 464.963 296.835C464.963 296.586 465.009 296.186 465.051 295.76C465.129 294.945 465.284 294 465.725 293.683C466.384 293.242 468.355 293.834 469.102 293.938C470.389 294.114 471.696 294.322 472.952 294.566C473.134 295.332 473.228 296.116 473.232 296.902Z" fill="#3F3D56"/>
<path d="M429.954 245.58C429.539 246.411 428.543 246.811 427.775 247.335L425.145 249.142C424.969 249.3 424.763 249.421 424.54 249.498C424.316 249.575 424.079 249.606 423.843 249.588C423.629 249.509 423.433 249.388 423.266 249.232C423.1 249.076 422.966 248.888 422.873 248.68C422.874 248.666 422.874 248.652 422.873 248.638L422.328 247.724L419.734 243.373C419.446 242.984 419.278 242.518 419.252 242.034C419.252 241.811 419.33 241.603 419.35 241.38C419.357 240.753 419.177 240.138 418.831 239.614C418.624 239.225 418.209 238.903 418.219 238.467C418.199 237.894 418.298 237.323 418.51 236.79C418.782 236.297 419.172 235.879 419.646 235.575C419.89 235.399 420.139 235.232 420.398 235.056C420.536 234.962 420.689 234.892 420.85 234.848C421.28 234.76 421.706 235.118 422.141 235.134C424.014 236.39 424.735 238.768 426.209 240.481C427.039 241.458 427.122 242.205 428.061 243.077C428.211 243.212 428.356 243.358 428.497 243.508C428.682 243.711 428.839 243.938 428.963 244.183C429.135 244.63 430.167 245.154 429.954 245.58Z" fill="#3F3D56"/>
<path d="M448.351 244.303C449.124 245.938 449.725 247.735 449.502 249.531C449.457 250.018 449.302 250.488 449.051 250.907C448.304 252.054 446.737 252.262 445.373 252.33C445.085 252.305 444.796 252.339 444.522 252.428C444.247 252.517 443.993 252.66 443.775 252.849C443.593 253.114 443.503 253.432 443.521 253.753C443.539 254.075 443.663 254.381 443.874 254.624C444.312 255.093 444.856 255.449 445.461 255.663C447.619 256.613 449.949 257.397 452.293 257.179C453.383 257.075 454.441 256.758 455.526 256.597C456.708 256.469 457.896 256.403 459.084 256.4C460.496 256.348 461.902 256.208 463.307 256.068L467.032 255.699C467.236 255.702 467.433 255.63 467.587 255.497C467.862 255.175 467.51 254.702 467.167 254.458C465.191 252.994 462.674 251.987 461.549 249.786C461.03 248.747 460.869 247.511 460.485 246.39C460.101 245.269 459.489 244.256 459.25 243.114C459.123 242.112 459.066 241.102 459.079 240.092C459.092 239.074 458.722 238.088 458.042 237.33C457.3 236.64 456.226 236.463 455.219 236.421C452.74 236.312 450.099 236.904 448.34 238.654C447.868 239.126 447.464 239.692 446.976 240.118C446.488 240.544 445.824 240.668 446.146 241.229C446.467 241.79 447.1 242.138 447.443 242.631C447.789 243.163 448.093 243.722 448.351 244.303Z" fill="#FBBEBE"/>
<path d="M469.481 259.406C468.827 263.404 467.763 267.324 466.306 271.104C465.573 272.811 464.95 274.562 464.438 276.348C464.039 277.957 464.116 279.681 463.748 281.296C463.292 283.305 462.835 285.319 462.467 287.344C461.849 290.436 461.601 293.591 461.73 296.742C461.731 297.238 461.826 297.729 462.01 298.19C462.181 298.564 462.456 298.886 462.617 299.27C462.737 299.608 462.787 299.966 462.762 300.324C462.737 300.681 462.638 301.03 462.472 301.347C462.206 301.941 461.845 302.488 461.403 302.967C456.568 304.41 451.396 303.938 446.358 304.244C441.715 304.524 437.02 305.48 432.444 304.685C431.925 302.609 432.792 300.433 433.534 298.408C435.687 292.526 438.068 286.399 437.684 280.236C437.644 279.518 437.562 278.802 437.44 278.092C436.688 273.726 437.508 269.203 438.82 264.972C439.635 262.335 439.598 259.526 439.412 256.779C439.319 255.887 439.307 254.989 439.375 254.095C439.45 253.182 439.789 252.311 440.351 251.587C440.351 251.551 440.397 251.514 440.423 251.478C440.449 251.442 440.651 251.447 440.812 251.478C440.853 251.496 440.897 251.505 440.942 251.505C440.987 251.505 441.031 251.496 441.072 251.478L441.129 251.442C441.151 251.426 441.177 251.418 441.204 251.418C441.231 251.418 441.257 251.426 441.279 251.442C441.399 251.514 441.466 251.764 441.725 251.81C442.109 251.868 442.495 251.905 442.882 251.919C443.348 251.933 443.811 251.999 444.262 252.117H444.325C444.999 252.231 445.692 252.172 446.337 251.945C446.767 251.838 447.182 251.678 447.572 251.468C447.686 251.343 448.402 251.229 448.548 251.141C449.02 250.855 448.916 249.516 449.014 248.965C449.069 248.413 449.2 247.872 449.404 247.356C449.64 246.975 449.966 246.658 450.353 246.433C450.74 246.207 451.176 246.08 451.624 246.063C452.517 246.042 453.41 246.122 454.285 246.302C456.22 246.577 458.202 246.53 460.101 246.977C461.056 247.2 462.098 247.537 462.975 247.101C463.214 247.158 463.25 247.366 463.25 247.621C463.228 247.862 463.179 248.101 463.105 248.332C462.773 249.765 463.899 251.084 464.936 252.122C465.375 252.611 465.892 253.024 466.467 253.342C466.985 253.581 467.504 253.68 468.023 253.939C468.443 254.164 468.8 254.49 469.061 254.889C469.36 255.347 469.561 255.861 469.652 256.4C469.763 257.405 469.705 258.421 469.481 259.406Z" fill="#3F3D56"/>
<path opacity="0.1" d="M469.481 259.406C468.827 263.404 467.763 267.324 466.306 271.104C465.574 272.811 464.95 274.562 464.438 276.348C464.039 277.957 464.117 279.681 463.748 281.296C463.292 283.305 462.835 285.319 462.467 287.344C462.358 287.406 462.244 287.464 462.13 287.515C461.484 287.824 460.8 288.044 460.096 288.17C458.831 288.323 457.55 288.281 456.298 288.045L448.895 287.053C445.938 286.654 442.789 286.171 440.595 284.167C439.375 283.066 438.576 281.612 437.7 280.21C437.659 279.492 437.578 278.776 437.456 278.066C436.704 273.7 437.523 269.177 438.836 264.946C439.65 262.309 439.614 259.5 439.427 256.753C439.335 255.861 439.323 254.963 439.391 254.069C439.466 253.156 439.805 252.285 440.366 251.561C440.518 251.517 440.672 251.482 440.828 251.457C440.932 251.436 441.038 251.422 441.145 251.416H441.295C441.47 251.416 441.644 251.437 441.814 251.478C442.167 251.591 442.514 251.724 442.851 251.878H442.914C443.358 252.024 443.826 252.091 444.294 252.075C444.978 252.075 445.684 251.966 446.369 251.919C447.215 251.787 448.08 251.943 448.828 252.361C449.31 252.749 449.768 253.167 450.197 253.612C450.717 254.02 451.301 254.338 451.925 254.552C456.391 256.258 461.345 256.153 465.735 254.261C466.157 254.021 466.635 253.899 467.12 253.908C467.479 253.978 467.818 254.123 468.117 254.334C468.428 254.515 468.734 254.692 469.05 254.853C469.349 255.31 469.551 255.825 469.642 256.364C469.761 257.38 469.706 258.408 469.481 259.406Z" fill="black"/>
<path d="M474 255.969C471.934 255.338 469.949 254.466 468.086 253.373C467.786 253.164 467.447 253.019 467.09 252.947C466.603 252.942 466.124 253.063 465.699 253.301C461.311 255.193 456.358 255.297 451.894 253.591C451.271 253.375 450.687 253.058 450.167 252.652C449.735 252.207 449.278 251.79 448.797 251.4C447.09 250.294 444.73 251.592 442.82 250.881C442.482 250.73 442.136 250.596 441.783 250.481C440.273 250.102 438.738 251.608 437.254 251.151C436.702 252.653 436.294 254.203 436.035 255.782C435.824 257.595 435.711 259.419 435.697 261.244C435.697 262.34 435.646 263.435 435.697 264.531C435.88 264.561 436.055 264.628 436.21 264.729C436.366 264.83 436.498 264.962 436.6 265.117C436.668 265.298 436.696 265.492 436.682 265.685C436.667 265.878 436.611 266.065 436.517 266.234C435.433 269.022 434.333 271.841 432.688 274.338C433.848 275.03 434.923 275.852 435.895 276.789C437.71 278.71 438.603 281.405 440.564 283.18C442.774 285.179 445.923 285.667 448.864 286.062L456.268 287.054C457.521 287.288 458.803 287.332 460.07 287.183C460.773 287.055 461.455 286.833 462.099 286.524C462.519 286.348 462.903 286.094 463.23 285.776C463.503 285.466 463.729 285.116 463.899 284.738C464.485 283.565 465.02 282.365 465.512 281.15C465.684 280.719 465.943 280.216 466.41 280.179C469.16 277.698 471.754 275.154 474.503 272.672C475.608 271.755 476.599 270.709 477.455 269.557C478.819 267.537 477.58 264.676 477.455 262.236C477.44 261.612 477.362 260.991 477.222 260.382C476.775 258.612 475.727 256.494 474 255.969Z" fill="#00FFF5"/>
<path opacity="0.1" d="M429.954 245.58C429.539 246.411 428.543 246.81 427.775 247.335L425.145 249.142C424.969 249.3 424.763 249.421 424.539 249.498C424.316 249.575 424.079 249.605 423.843 249.588C423.629 249.509 423.433 249.388 423.266 249.232C423.099 249.076 422.966 248.888 422.873 248.68C422.873 248.56 422.873 248.43 422.873 248.306C422.853 247.886 422.909 247.465 423.039 247.065C423.296 246.478 423.695 245.964 424.201 245.57C425.177 244.644 426.339 243.936 427.609 243.493C427.807 243.416 428.022 243.394 428.232 243.43C428.312 243.452 428.389 243.485 428.46 243.529C428.646 243.732 428.803 243.959 428.927 244.204C429.134 244.63 430.167 245.154 429.954 245.58Z" fill="black"/>
<path d="M436.149 251.052C435.267 251.011 434.546 250.372 433.903 249.765L431.936 247.937C431.805 247.826 431.69 247.696 431.594 247.553C431.488 247.351 431.408 247.136 431.355 246.914C430.938 245.865 430.285 244.927 429.446 244.173C429.3 243.987 429.104 243.846 428.881 243.768C428.67 243.729 428.452 243.751 428.253 243.83C426.983 244.273 425.821 244.981 424.844 245.907C424.34 246.302 423.94 246.815 423.682 247.402C423.552 247.802 423.496 248.223 423.516 248.643C423.529 250.015 423.836 251.368 424.419 252.61C424.507 252.802 424.606 252.994 424.71 253.181C425.402 254.326 426.22 255.39 427.148 256.353L428.383 257.734C429.597 259.095 430.811 260.455 432.128 261.706C432.601 262.21 433.173 262.61 433.809 262.88C434.128 263.01 434.477 263.05 434.818 262.995C435.158 262.94 435.477 262.792 435.739 262.568C435.988 262.28 436.175 261.944 436.289 261.582C437.088 259.505 437.845 257.345 437.892 255.107C437.903 254.211 437.865 253.315 437.778 252.423C437.7 251.478 437.031 251.109 436.149 251.052Z" fill="#00FFF5"/>
<path d="M467.588 323.74C467.557 328.963 467.187 334.178 466.477 339.352C466.374 340.188 466.259 341.024 466.202 341.86C466.031 344.285 466.311 346.72 466.083 349.129C465.964 350.432 465.694 351.725 465.466 352.997C464.452 358.674 464.156 364.457 464.584 370.208C465.3 379.777 463.105 389.351 464.101 398.894C464.222 400.749 464.119 402.613 463.795 404.444C463.61 405.58 463.341 406.701 462.991 407.798C462.234 410.397 461.473 412.993 460.708 415.586C460.618 415.98 460.441 416.349 460.19 416.666C459.925 416.895 459.615 417.065 459.279 417.164C458.944 417.263 458.591 417.29 458.244 417.242C455.251 417.149 452.434 415.856 449.715 414.594C449.403 414.471 449.113 414.295 448.859 414.075C448.294 413.488 448.34 412.564 448.091 411.791C447.842 411.017 447.168 410.29 446.784 409.496C446.468 408.744 446.277 407.946 446.219 407.133C445.873 404.475 445.637 401.806 445.513 399.127C445.316 395.358 447.806 391.89 448.626 388.224C450.182 381.018 448.864 373.292 451.63 366.454C452.501 364.294 451.235 361.678 451.111 359.352C451.066 357.851 450.871 356.359 450.53 354.897C450.011 352.945 448.916 351.107 448.838 349.082C448.781 347.618 449.253 346.19 449.497 344.747C449.821 342.622 449.791 340.459 449.409 338.345C449.134 336.6 448.714 334.856 448.294 333.153L448.2 333.345C446.936 335.818 445.849 338.377 444.947 341.003C444.532 342.275 444.169 343.573 443.651 344.809C443.225 345.847 442.701 346.797 442.188 347.774C440.345 351.216 438.742 354.781 437.389 358.443C436.745 360.239 436.18 362.077 435.62 363.879L431.775 376.34C430.738 379.616 429.602 382.783 428.585 386.054C427.148 390.727 425.711 395.358 424.04 399.927C422.484 404.262 420.632 408.753 421.187 413.333C419.756 414.005 418.185 414.324 416.606 414.262C413.932 414.025 411.309 413.388 408.824 412.372C407.833 412.003 406.806 411.588 406.137 410.773C404.985 409.366 405.27 407.305 405.618 405.513C405.749 404.706 405.957 403.913 406.24 403.146C406.635 402.191 407.278 401.344 407.683 400.399C408.497 398.587 408.549 396.536 408.871 394.569C409.192 392.601 409.908 390.524 411.589 389.455C411.874 385.997 413.296 382.586 414.079 379.206C414.671 376.646 414.868 374.014 415.335 371.418C415.802 368.822 416.554 366.226 418.121 364.123C417.997 361.955 418.486 359.796 419.532 357.893C419.784 357.475 419.991 357.031 420.149 356.569C420.246 356.118 420.302 355.659 420.315 355.198C420.487 353.394 421.258 351.699 422.505 350.385C421.986 348.49 422.707 346.512 423.355 344.674C424.172 342.329 424.542 339.851 424.445 337.369C424.364 336.676 424.398 335.974 424.543 335.292C424.689 334.773 424.974 334.332 425.14 333.833C425.288 333.223 425.366 332.597 425.373 331.969C425.576 329.16 426.712 326.512 427.967 324.005C428.714 322.541 428.082 320.552 428.237 318.922C428.507 316.212 428.803 313.408 430.146 311.046C430.395 310.599 430.665 310.173 430.888 309.711C431.159 309.051 431.305 308.347 431.319 307.634C431.366 306.445 431.532 305.459 431.106 304.353C433.882 302.043 437.669 301.394 441.28 301.238C444.89 301.082 448.543 301.409 452.076 300.641C453.113 300.407 454.151 300.085 455.245 299.93C457.731 299.566 460.252 300.132 462.706 300.693C462.535 302.25 463.105 303.746 463.743 305.194C466.235 311.062 467.541 317.365 467.588 323.74Z" fill="#33313F"/>
<path opacity="0.1" d="M455.37 324.929L449.409 338.345C449.134 336.6 448.714 334.856 448.294 333.153L448.2 333.345V333.065L451.448 325.915L455.37 324.929Z" fill="black"/>
<path opacity="0.1" d="M473.232 296.903C472.888 297.16 472.477 297.313 472.049 297.344C471.392 297.367 470.736 297.278 470.109 297.079L465.44 295.911C465.293 295.875 465.151 295.824 465.014 295.76C465.092 294.945 465.248 294 465.689 293.683C466.347 293.242 468.319 293.834 469.066 293.938C470.353 294.114 471.66 294.322 472.915 294.566C473.11 295.33 473.216 296.114 473.232 296.903Z" fill="black"/>
<path d="M477.18 266.01C477.279 266.441 477.419 266.867 477.502 267.303C477.641 268.373 477.604 269.459 477.393 270.517L476.967 273.487L476.542 276.472L474.897 287.962L474.493 290.807L473.922 294.779C473.895 295.109 473.811 295.433 473.673 295.734C473.503 296.016 473.266 296.252 472.982 296.42C472.699 296.587 472.378 296.682 472.049 296.695C471.392 296.716 470.736 296.626 470.109 296.43L465.44 295.257C465.235 295.22 465.041 295.14 464.869 295.023C464.726 294.883 464.623 294.708 464.571 294.516C464.518 294.323 464.517 294.12 464.568 293.927C464.636 293.533 464.807 293.164 464.864 292.77C464.978 292.001 464.656 291.212 464.771 290.449C464.882 289.963 465.057 289.493 465.289 289.052C466.846 285.61 465.943 281.591 466.472 277.853C466.948 274.911 468.19 272.146 470.073 269.837C471.234 268.379 472.569 267.068 474.046 265.932C474.628 265.481 475.551 264.551 476.282 264.375C477.221 264.177 477.024 265.356 477.18 266.01Z" fill="#00FFF5"/>
<path d="M441.845 221.287C441.503 222.377 442.037 223.576 441.793 224.687C441.529 225.913 440.377 226.764 440.05 227.995C439.531 229.869 441.119 231.577 442.281 233.135C446.587 238.919 446.021 246.925 444.548 253.981C443.363 259.641 441.723 265.198 439.646 270.595C438.997 272.272 438.281 273.975 437.005 275.231C439.391 274.546 441.928 273.855 444.32 274.52C447.35 275.361 449.964 278.305 453.036 277.635C454.882 277.225 456.179 275.584 457.84 274.676C460.952 272.999 464.703 274.053 468.174 274.593C468.922 274.769 469.704 274.73 470.431 274.478C470.986 274.18 471.457 273.746 471.8 273.217C473.349 271.228 474.277 268.826 474.467 266.311C474.549 265.059 474.364 263.804 473.925 262.629C473.486 261.454 472.802 260.385 471.92 259.494C471.183 258.799 470.301 258.238 469.735 257.418C469.185 256.46 468.891 255.376 468.879 254.271C468.47 248.56 469.86 242.73 468.428 237.205C467.909 235.238 467.064 233.353 466.835 231.338C466.55 228.831 467.23 226.146 466.234 223.852C465.45 222.029 463.723 220.736 461.86 220.072C459.998 219.407 458.006 219.22 456.029 219.033C453.186 218.795 443.033 217.574 441.845 221.287Z" fill="#33313F"/>
<g opacity="0.1">
<path opacity="0.1" d="M444.548 253.981C443.368 259.618 441.738 265.151 439.671 270.527C440.029 269.816 440.33 269.068 440.616 268.326C442.696 262.929 444.335 257.373 445.518 251.712C446.997 244.651 447.562 236.655 443.256 230.866C442.219 229.485 440.885 227.99 440.932 226.37C440.549 226.86 440.25 227.411 440.05 228C439.531 229.874 441.119 231.582 442.281 233.14C446.587 238.919 446.021 246.925 444.548 253.981Z" fill="black"/>
<path opacity="0.1" d="M441.856 224.163C442.272 223.646 442.582 223.051 442.769 222.414C442.849 221.642 442.828 220.864 442.706 220.098C442.307 220.399 442.007 220.813 441.845 221.287C441.539 222.206 441.892 223.203 441.856 224.163Z" fill="black"/>
<path opacity="0.1" d="M472.776 270.932C472.432 271.46 471.961 271.892 471.406 272.189C470.681 272.445 469.897 272.485 469.149 272.303C465.679 271.784 461.886 270.714 458.815 272.391C457.15 273.295 455.858 274.935 454.006 275.351C450.94 276.036 448.325 273.092 445.295 272.236C443.147 271.639 440.885 272.132 438.722 272.755C438.292 273.672 437.712 274.511 437.005 275.237C439.391 274.551 441.928 273.861 444.32 274.525C447.35 275.366 449.964 278.31 453.036 277.641C454.882 277.23 456.179 275.59 457.84 274.681C460.952 273.004 464.703 274.058 468.174 274.598C468.922 274.775 469.704 274.735 470.431 274.484C470.986 274.185 471.457 273.751 471.8 273.222C472.741 271.981 473.466 270.591 473.948 269.11C473.601 269.745 473.21 270.354 472.776 270.932Z" fill="black"/>
</g>
</g>
<defs>
<linearGradient id="paint0_linear" x1="398.744" y1="317.966" x2="478.119" y2="317.966" gradientUnits="userSpaceOnUse">
<stop stop-color="#808080" stop-opacity="0.25"/>
<stop offset="0.54" stop-color="#808080" stop-opacity="0.12"/>
<stop offset="1" stop-color="#808080" stop-opacity="0.1"/>
</linearGradient>
<clipPath id="clip0">
<rect width="605" height="418" fill="white"/>
</clipPath>
</defs>
</svg>
