<svg width="708" height="143" viewBox="0 0 708 143" fill="none" xmlns="http://www.w3.org/2000/svg">
<path d="M2 141C112.167 39.5844 407 -104.803 705 128.97" stroke="#00FFF5" stroke-width="5"/>
<path d="M705 132.5C706.381 132.5 707.5 131.381 707.5 130L707.5 107.5C707.5 106.119 706.381 105 705 105C703.619 105 702.5 106.119 702.5 107.5L702.5 127.5L682.5 127.5C681.119 127.5 680 128.619 680 130C680 131.381 681.119 132.5 682.5 132.5L705 132.5ZM702.232 130.768L703.232 131.768L706.768 128.232L705.768 127.232L702.232 130.768Z" fill="#00FFF5"/>
</svg>
