<svg width="708" height="143" viewBox="0 0 708 143" fill="none" xmlns="http://www.w3.org/2000/svg">
<path d="M706 2C595.833 103.416 301 247.803 3 14.0302" stroke="#00FFF5" stroke-width="5"/>
<path d="M3 10.5C1.61929 10.5 0.5 11.6193 0.5 13L0.5 35.5C0.5 36.8807 1.61929 38 3 38C4.38071 38 5.5 36.8807 5.5 35.5L5.5 15.5L25.5 15.5C26.8807 15.5 28 14.3807 28 13C28 11.6193 26.8807 10.5 25.5 10.5L3 10.5ZM5.76777 12.2322L4.76777 11.2322L1.23223 14.7678L2.23223 15.7678L5.76777 12.2322Z" fill="#00FFF5"/>
</svg>
