<svg width="216" height="216" viewBox="0 0 216 216" fill="none" xmlns="http://www.w3.org/2000/svg">
<path d="M205.874 108L192.374 124.875L182.249 118.125L172.124 124.875L161.999 118.125L151.874 124.875L141.749 118.125L131.624 124.875L121.499 118.125L111.374 124.875H94.4994C90.5994 134.216 83.5844 141.917 74.6474 146.67C65.7104 151.422 55.4031 152.932 45.4783 150.944C35.5535 148.955 26.6239 143.59 20.208 135.761C13.7922 127.932 10.2861 118.122 10.2861 108C10.2861 97.8779 13.7922 88.0683 20.208 80.2392C26.6239 72.4102 35.5535 67.0451 45.4783 65.0563C55.4031 63.0676 65.7104 64.5779 74.6474 69.3304C83.5844 74.083 90.5994 81.7844 94.4994 91.125H192.374L205.874 108Z" fill="#F3CDA6"/>
<path d="M205.875 108L192.375 124.875L182.25 118.125L172.125 124.875L162 118.125L151.875 124.875L141.75 118.125L131.625 124.875L121.5 118.125L111.375 124.875H94.5001C92.0215 130.822 88.264 136.149 83.4944 140.48C78.7248 144.811 73.0601 148.039 66.9027 149.934C60.7453 151.829 54.2461 152.345 47.8668 151.445C41.4875 150.545 35.3845 148.252 29.9912 144.728L90.2054 83.2318C91.9041 85.7085 93.3432 88.3535 94.5001 91.125H192.375L205.875 108Z" fill="#F3CDA6"/>
<path d="M37.125 118.125C42.7169 118.125 47.25 113.592 47.25 108C47.25 102.408 42.7169 97.875 37.125 97.875C31.5331 97.875 27 102.408 27 108C27 113.592 31.5331 118.125 37.125 118.125Z" fill="#AF9D8B"/>
<path d="M101.25 124.875H111.375L121.5 118.125L131.625 124.875L141.75 118.125L151.875 124.875L162 118.125L172.125 124.875L182.25 118.125L192.375 124.875L205.875 108H101.25V124.875Z" fill="#F3CDA6"/>
<path d="M145.125 16.875C145.133 15.017 144.629 13.1926 143.67 11.6016C142.71 10.0106 141.331 8.71448 139.683 7.85505C138.036 6.99562 136.184 6.60607 134.33 6.72906C132.476 6.85205 130.691 7.48284 129.172 8.55235C127.653 9.62186 126.457 11.0888 125.716 12.7927C124.974 14.4965 124.716 16.3714 124.97 18.2121C125.223 20.0528 125.978 21.7884 127.152 23.2286C128.326 24.6689 129.873 25.7584 131.625 26.3778V35.319L123.003 41.067C122.54 41.3752 122.161 41.7928 121.899 42.2826C121.637 42.7725 121.5 43.3195 121.5 43.875V50.625H128.25V45.6811L136.872 39.933C137.335 39.6248 137.714 39.2073 137.976 38.7174C138.238 38.2276 138.375 37.6806 138.375 37.125V26.3782C140.344 25.6848 142.049 24.3991 143.258 22.6976C144.466 20.996 145.119 18.9621 145.125 16.875ZM135 13.5C135.668 13.5 136.32 13.698 136.875 14.0688C137.43 14.4397 137.863 14.9668 138.118 15.5835C138.374 16.2002 138.44 16.8788 138.31 17.5335C138.18 18.1881 137.858 18.7895 137.386 19.2615C136.914 19.7335 136.313 20.055 135.658 20.1852C135.004 20.3154 134.325 20.2486 133.708 19.9931C133.092 19.7377 132.565 19.3051 132.194 18.7501C131.823 18.1951 131.625 17.5425 131.625 16.875C131.626 15.9803 131.982 15.1226 132.615 14.4899C133.248 13.8572 134.105 13.5013 135 13.5Z" fill="#445783"/>
<path d="M91.125 26.3777V54C91.1252 54.895 91.4809 55.7533 92.1139 56.3861L104.625 68.8972V81H111.375V67.5C111.375 66.605 111.019 65.7467 110.386 65.1139L97.875 52.6027V26.3782C100.127 25.582 102.025 24.0154 103.233 21.9553C104.442 19.8951 104.883 17.4741 104.479 15.1201C104.075 12.766 102.852 10.6305 101.026 9.09105C99.2 7.55157 96.8885 6.70721 94.5 6.70721C92.1116 6.70721 89.8 7.55157 87.9739 9.09105C86.1478 10.6305 84.9247 12.766 84.5208 15.1201C84.1169 17.4741 84.5583 19.8951 85.7668 21.9553C86.9753 24.0154 88.8732 25.582 91.125 26.3782V26.3777ZM94.5 13.5C95.1675 13.5 95.82 13.6979 96.3751 14.0688C96.9301 14.4396 97.3627 14.9667 97.6181 15.5834C97.8736 16.2001 97.9404 16.8787 97.8102 17.5334C97.6799 18.1881 97.3585 18.7895 96.8865 19.2615C96.4145 19.7335 95.8131 20.0549 95.1584 20.1851C94.5038 20.3154 93.8252 20.2485 93.2085 19.9931C92.5918 19.7376 92.0647 19.3051 91.6938 18.75C91.323 18.195 91.125 17.5425 91.125 16.875C91.1262 15.9803 91.4822 15.1225 92.1149 14.4899C92.7476 13.8572 93.6053 13.5012 94.5 13.5Z" fill="#1285AA"/>
<path d="M57.375 32.0625V26.3782C59.6269 25.582 61.5248 24.0154 62.7333 21.9553C63.9418 19.8951 64.3831 17.4741 63.9792 15.1201C63.5753 12.766 62.3522 10.6305 60.5261 9.09105C58.7 7.55157 56.3885 6.70721 54 6.70721C51.6116 6.70721 49.3 7.55157 47.4739 9.09105C45.6478 10.6305 44.4247 12.766 44.0208 15.1201C43.6169 17.4741 44.0583 19.8951 45.2668 21.9553C46.4753 24.0154 48.3732 25.582 50.625 26.3782V33.75C50.6246 34.274 50.7463 34.791 50.9807 35.2597C51.2151 35.7284 51.5555 36.136 51.975 36.45L64.125 45.5625V57.375H70.875V43.875C70.8755 43.351 70.7537 42.8341 70.5193 42.3653C70.285 41.8966 69.9445 41.4891 69.525 41.175L57.375 32.0625ZM54 13.5C54.6675 13.5 55.3201 13.6979 55.8751 14.0688C56.4301 14.4396 56.8627 14.9667 57.1181 15.5834C57.3736 16.2001 57.4404 16.8787 57.3102 17.5334C57.1799 18.1881 56.8585 18.7895 56.3865 19.2615C55.9145 19.7335 55.3131 20.0549 54.6585 20.1852C54.0038 20.3154 53.3252 20.2485 52.7085 19.9931C52.0918 19.7376 51.5647 19.3051 51.1938 18.75C50.823 18.195 50.625 17.5425 50.625 16.875C50.6262 15.9803 50.9822 15.1225 51.6149 14.4899C52.2476 13.8572 53.1053 13.5012 54 13.5Z" fill="#445783"/>
<path d="M145.124 67.5H151.874V42.5862L163.508 36.7689C164.069 36.4886 164.541 36.0577 164.87 35.5245C165.2 34.9912 165.374 34.3768 165.374 33.75V26.3782C167.626 25.582 169.524 24.0154 170.732 21.9553C171.941 19.8951 172.382 17.4741 171.978 15.1201C171.574 12.766 170.351 10.6305 168.525 9.09105C166.699 7.55157 164.387 6.70721 161.999 6.70721C159.611 6.70721 157.299 7.55157 155.473 9.09105C153.647 10.6305 152.424 12.766 152.02 15.1201C151.616 17.4741 152.057 19.8951 153.266 21.9553C154.474 24.0154 156.372 25.582 158.624 26.3782V31.6643L146.99 37.4811C146.429 37.7614 145.957 38.1923 145.628 38.7255C145.298 39.2588 145.124 39.8732 145.124 40.5V67.5ZM161.999 13.5C162.667 13.5 163.319 13.6979 163.874 14.0688C164.429 14.4396 164.862 14.9667 165.117 15.5834C165.373 16.2001 165.439 16.8787 165.309 17.5334C165.179 18.1881 164.858 18.7895 164.385 19.2615C163.913 19.7335 163.312 20.0549 162.657 20.1852C162.003 20.3154 161.324 20.2485 160.707 19.9931C160.091 19.7376 159.564 19.3051 159.193 18.75C158.822 18.195 158.624 17.5425 158.624 16.875C158.625 15.9803 158.981 15.1225 159.614 14.4899C160.247 13.8572 161.104 13.5012 161.999 13.5Z" fill="#1285AA"/>
<path d="M38.9969 47.817L20.25 35.319V26.3782C22.5019 25.582 24.3998 24.0154 25.6083 21.9553C26.8168 19.8951 27.2581 17.4741 26.8542 15.1201C26.4503 12.766 25.2272 10.6305 23.4011 9.09105C21.575 7.55157 19.2635 6.70721 16.875 6.70721C14.4866 6.70721 12.175 7.55157 10.3489 9.09105C8.52281 10.6305 7.29973 12.766 6.89584 15.1201C6.49194 17.4741 6.93325 19.8951 8.14176 21.9553C9.35028 24.0154 11.2482 25.582 13.5 26.3782V37.125C13.5 37.6806 13.6372 38.2276 13.8993 38.7174C14.1615 39.2072 14.5405 39.6248 15.0027 39.933L33.75 52.431V57.375H40.5V50.625C40.5 50.0694 40.3627 49.5224 40.1005 49.0325C39.8383 48.5427 39.4592 48.1252 38.9969 47.817ZM16.875 13.5C17.5425 13.5 18.1951 13.6979 18.7501 14.0688C19.3051 14.4396 19.7377 14.9667 19.9931 15.5834C20.2486 16.2001 20.3154 16.8787 20.1852 17.5334C20.0549 18.1881 19.7335 18.7895 19.2615 19.2615C18.7895 19.7335 18.1881 20.0549 17.5335 20.1852C16.8788 20.3154 16.2002 20.2485 15.5835 19.9931C14.9668 19.7376 14.4397 19.3051 14.0688 18.75C13.698 18.195 13.5 17.5425 13.5 16.875C13.5012 15.9803 13.8572 15.1225 14.4899 14.4899C15.1226 13.8572 15.9803 13.5012 16.875 13.5Z" fill="#1285AA"/>
<path d="M121.499 57.375H128.249V81H121.499V57.375Z" fill="#1285AA"/>
<path d="M145.124 74.25H151.874V81H145.124V74.25Z" fill="#1285AA"/>
<path d="M185.624 49.5357L200.378 43.6345C201.004 43.3834 201.541 42.9506 201.919 42.392C202.297 41.8334 202.499 41.1745 202.499 40.5V26.3782C204.751 25.582 206.649 24.0154 207.857 21.9553C209.066 19.8951 209.507 17.4741 209.103 15.1201C208.699 12.766 207.476 10.6305 205.65 9.09105C203.824 7.55157 201.512 6.70721 199.124 6.70721C196.736 6.70721 194.424 7.55157 192.598 9.09105C190.772 10.6305 189.549 12.766 189.145 15.1201C188.741 17.4741 189.182 19.8951 190.391 21.9553C191.599 24.0154 193.497 25.582 195.749 26.3782V38.2143L180.995 44.1155C180.369 44.3666 179.832 44.7994 179.454 45.358C179.076 45.9166 178.874 46.5755 178.874 47.25V81H185.624V49.5357ZM199.124 13.5C199.792 13.5 200.444 13.6979 200.999 14.0688C201.554 14.4396 201.987 14.9667 202.242 15.5834C202.498 16.2001 202.564 16.8787 202.434 17.5334C202.304 18.1881 201.982 18.7895 201.51 19.2615C201.038 19.7335 200.437 20.0549 199.782 20.1851C199.128 20.3154 198.449 20.2485 197.832 19.9931C197.216 19.7376 196.689 19.3051 196.318 18.75C195.947 18.195 195.749 17.5425 195.749 16.875C195.75 15.9803 196.106 15.1225 196.739 14.4899C197.372 13.8572 198.229 13.5012 199.124 13.5Z" fill="#1285AA"/>
<path d="M6.74512 50.6865L13.496 50.5784L13.775 68.0175L7.02414 68.1255L6.74512 50.6865Z" fill="#1285AA"/>
<path d="M161.999 50.625H168.749V81H161.999V50.625Z" fill="#1285AA"/>
<path d="M107.999 27H114.749V43.875H107.999V27Z" fill="#1285AA"/>
<path d="M33.75 20.25H40.5V33.75H33.75V20.25Z" fill="#1285AA"/>
<path d="M91.125 189.622V179.671L94.1439 173.634C94.3782 173.166 94.5001 172.649 94.5 172.125V148.5H87.75V171.329L84.7311 177.366C84.4968 177.834 84.3749 178.351 84.375 178.875V189.622C82.1232 190.418 80.2253 191.985 79.0168 194.045C77.8083 196.105 77.3669 198.526 77.7708 200.88C78.1747 203.234 79.3978 205.369 81.2239 206.909C83.05 208.448 85.3616 209.293 87.75 209.293C90.1385 209.293 92.45 208.448 94.2761 206.909C96.1022 205.369 97.3253 203.234 97.7292 200.88C98.1331 198.526 97.6918 196.105 96.4833 194.045C95.2748 191.985 93.3769 190.418 91.125 189.622ZM87.75 202.5C87.0825 202.5 86.43 202.302 85.875 201.931C85.3199 201.56 84.8874 201.033 84.6319 200.417C84.3765 199.8 84.3096 199.121 84.4399 198.467C84.5701 197.812 84.8915 197.211 85.3635 196.739C85.8355 196.267 86.4369 195.945 87.0916 195.815C87.7463 195.685 88.4249 195.751 89.0416 196.007C89.6583 196.262 90.1854 196.695 90.5562 197.25C90.9271 197.805 91.125 198.458 91.125 199.125C91.1238 200.02 90.7678 200.877 90.1351 201.51C89.5025 202.143 88.6447 202.499 87.75 202.5Z" fill="#1285AA"/>
<path d="M165.374 189.622V182.25C165.374 181.667 165.223 181.095 164.936 180.587C164.649 180.08 164.235 179.656 163.736 179.356L148.499 170.213V165.375H141.749V172.125C141.749 172.708 141.9 173.28 142.187 173.788C142.474 174.295 142.888 174.719 143.387 175.019L158.624 184.162V189.622C156.372 190.418 154.474 191.985 153.266 194.045C152.057 196.105 151.616 198.526 152.02 200.88C152.424 203.234 153.647 205.369 155.473 206.909C157.299 208.448 159.611 209.293 161.999 209.293C164.387 209.293 166.699 208.448 168.525 206.909C170.351 205.369 171.574 203.234 171.978 200.88C172.382 198.526 171.941 196.105 170.732 194.045C169.524 191.985 167.626 190.418 165.374 189.622ZM161.999 202.5C161.331 202.5 160.679 202.302 160.124 201.931C159.569 201.56 159.136 201.033 158.881 200.417C158.625 199.8 158.559 199.121 158.689 198.467C158.819 197.812 159.141 197.211 159.613 196.739C160.085 196.267 160.686 195.945 161.341 195.815C161.995 195.685 162.674 195.751 163.291 196.007C163.907 196.262 164.434 196.695 164.805 197.25C165.176 197.805 165.374 198.458 165.374 199.125C165.373 200.02 165.017 200.877 164.384 201.51C163.751 202.143 162.894 202.499 161.999 202.5Z" fill="#1285AA"/>
<path d="M202.5 189.622V178.875C202.5 178.405 202.402 177.94 202.212 177.51C202.022 177.08 201.744 176.695 201.396 176.378L165.375 143.632V135H158.625V145.125C158.625 145.595 158.723 146.06 158.913 146.49C159.103 146.92 159.381 147.305 159.729 147.622L195.75 180.368V189.622C193.498 190.418 191.6 191.985 190.392 194.045C189.183 196.105 188.742 198.526 189.146 200.88C189.55 203.234 190.773 205.369 192.599 206.909C194.425 208.448 196.737 209.293 199.125 209.293C201.513 209.293 203.825 208.448 205.651 206.909C207.477 205.369 208.7 203.234 209.104 200.88C209.508 198.526 209.067 196.105 207.858 194.045C206.65 191.985 204.752 190.418 202.5 189.622ZM199.125 202.5C198.457 202.5 197.805 202.302 197.25 201.931C196.695 201.56 196.262 201.033 196.007 200.417C195.751 199.8 195.685 199.121 195.815 198.467C195.945 197.812 196.267 197.211 196.739 196.739C197.211 196.267 197.812 195.945 198.467 195.815C199.121 195.685 199.8 195.751 200.417 196.007C201.033 196.262 201.56 196.695 201.931 197.25C202.302 197.805 202.5 198.457 202.5 199.125C202.499 200.02 202.143 200.877 201.51 201.51C200.877 202.143 200.02 202.499 199.125 202.5Z" fill="#445783"/>
<path d="M124.875 189.622V178.875H118.125V189.622C115.873 190.418 113.975 191.985 112.767 194.045C111.558 196.105 111.117 198.526 111.521 200.88C111.925 203.234 113.148 205.369 114.974 206.909C116.8 208.448 119.112 209.293 121.5 209.293C123.888 209.293 126.2 208.448 128.026 206.909C129.852 205.369 131.075 203.234 131.479 200.88C131.883 198.526 131.442 196.105 130.233 194.045C129.025 191.985 127.127 190.418 124.875 189.622ZM121.5 202.5C120.833 202.5 120.18 202.302 119.625 201.931C119.07 201.56 118.637 201.033 118.382 200.417C118.126 199.8 118.06 199.121 118.19 198.467C118.32 197.812 118.642 197.211 119.114 196.739C119.586 196.267 120.187 195.945 120.842 195.815C121.496 195.685 122.175 195.751 122.792 196.007C123.408 196.262 123.935 196.695 124.306 197.25C124.677 197.805 124.875 198.457 124.875 199.125C124.874 200.02 124.518 200.877 123.885 201.51C123.252 202.143 122.395 202.499 121.5 202.5Z" fill="#445783"/>
<path d="M118.125 172.125H124.875V162C124.875 161.105 124.519 160.247 123.886 159.614L111.375 147.103V135H104.625V148.5C104.625 149.395 104.981 150.253 105.614 150.886L118.125 163.397V172.125Z" fill="#445783"/>
<path d="M64.125 173.414L52.4906 179.231C51.9299 179.511 51.4585 179.942 51.129 180.476C50.7995 181.009 50.625 181.623 50.625 182.25V189.622C48.3732 190.418 46.4753 191.985 45.2668 194.045C44.0583 196.105 43.6169 198.526 44.0208 200.88C44.4247 203.234 45.6478 205.369 47.4739 206.909C49.3 208.448 51.6116 209.293 54 209.293C56.3885 209.293 58.7 208.448 60.5261 206.909C62.3522 205.369 63.5753 203.234 63.9792 200.88C64.3831 198.526 63.9418 196.105 62.7333 194.045C61.5248 191.985 59.6269 190.418 57.375 189.622V184.336L69.0095 178.519C69.5701 178.239 70.0416 177.808 70.3711 177.274C70.7006 176.741 70.8751 176.127 70.875 175.5V162H64.125V173.414ZM54 202.5C53.3325 202.5 52.68 202.302 52.125 201.931C51.57 201.56 51.1374 201.033 50.8819 200.417C50.6265 199.8 50.5596 199.121 50.6899 198.467C50.8201 197.812 51.1415 197.211 51.6135 196.739C52.0855 196.267 52.6869 195.945 53.3416 195.815C53.9963 195.685 54.6749 195.751 55.2916 196.007C55.9083 196.262 56.4354 196.695 56.8062 197.25C57.1771 197.805 57.375 198.457 57.375 199.125C57.3738 200.02 57.0178 200.877 56.3852 201.51C55.7525 202.143 54.8948 202.499 54 202.5Z" fill="#445783"/>
<path d="M30.375 166.464L15.6208 172.365C14.9948 172.617 14.4584 173.049 14.0804 173.608C13.7025 174.167 13.5003 174.826 13.5 175.5V189.622C11.2482 190.418 9.35028 191.985 8.14176 194.045C6.93325 196.105 6.49194 198.526 6.89584 200.88C7.29973 203.234 8.52281 205.369 10.3489 206.909C12.175 208.448 14.4866 209.293 16.875 209.293C19.2635 209.293 21.575 208.448 23.4011 206.909C25.2272 205.369 26.4503 203.234 26.8542 200.88C27.2581 198.526 26.8168 196.105 25.6083 194.045C24.3998 191.985 22.5019 190.418 20.25 189.622V177.786L35.0043 171.885C35.6302 171.633 36.1667 171.201 36.5446 170.642C36.9226 170.083 37.1247 169.424 37.125 168.75V158.625H30.375V166.464ZM16.875 202.5C16.2075 202.5 15.555 202.302 15 201.931C14.445 201.56 14.0124 201.033 13.7569 200.417C13.5015 199.8 13.4346 199.121 13.5649 198.467C13.6951 197.812 14.0165 197.211 14.4885 196.739C14.9605 196.267 15.5619 195.945 16.2166 195.815C16.8713 195.685 17.5499 195.751 18.1666 196.007C18.7833 196.262 19.3104 196.695 19.6812 197.25C20.0521 197.805 20.25 198.457 20.25 199.125C20.2488 200.02 19.8928 200.877 19.2602 201.51C18.6275 202.143 17.7697 202.499 16.875 202.5Z" fill="#1285AA"/>
<path d="M199.125 138.375C197.567 138.38 196.031 138.746 194.638 139.444C193.245 140.142 192.033 141.154 191.097 142.4L185.625 139.664V135H178.875V141.75C178.875 142.377 179.049 142.991 179.379 143.524C179.708 144.058 180.18 144.489 180.741 144.769L189.042 148.922C189.128 150.901 189.794 152.812 190.957 154.416C192.119 156.02 193.728 157.247 195.582 157.945C197.437 158.642 199.455 158.78 201.387 158.339C203.319 157.899 205.079 156.901 206.448 155.469C207.817 154.037 208.735 152.234 209.088 150.284C209.441 148.334 209.213 146.324 208.433 144.503C207.653 142.682 206.355 141.13 204.7 140.04C203.045 138.951 201.106 138.372 199.125 138.375ZM199.125 151.875C198.23 151.874 197.373 151.518 196.74 150.885C196.107 150.252 195.751 149.395 195.75 148.5L197.046 145.908C197.628 145.415 198.362 145.138 199.125 145.125C200.02 145.125 200.879 145.481 201.511 146.114C202.144 146.746 202.5 147.605 202.5 148.5C202.5 149.395 202.144 150.254 201.511 150.886C200.879 151.519 200.02 151.875 199.125 151.875Z" fill="#1285AA"/>
<path d="M141.75 135H148.5V158.625H141.75V135Z" fill="#1285AA"/>
<path d="M124.875 135H131.625V148.5H124.875V135Z" fill="#1285AA"/>
<path d="M47.25 162H54V172.125H47.25V162Z" fill="#1285AA"/>
<path d="M74.25 23.625H81V37.125H74.25V23.625Z" fill="#1285AA"/>
</svg>
