<svg width="242" height="242" viewBox="0 0 242 242" fill="none" xmlns="http://www.w3.org/2000/svg">
<path d="M158.812 124.781H83.1875V170.156H158.812V124.781Z" fill="#FCDAB7"/>
<path d="M136.125 130.453C136.125 128.521 135.94 126.638 135.675 124.781H83.1875V167.85C87.3317 169.317 91.7747 170.156 96.4219 170.156C118.349 170.156 136.125 152.381 136.125 130.453Z" fill="#E3B484"/>
<path d="M121 155.031C125.177 155.031 128.562 151.645 128.562 147.469C128.562 143.292 125.177 139.906 121 139.906C116.823 139.906 113.438 143.292 113.438 147.469C113.438 151.645 116.823 155.031 121 155.031Z" fill="#7B909B"/>
<path d="M136.125 124.781V102.094C136.125 93.741 129.353 86.9688 121 86.9688C112.647 86.9688 105.875 93.741 105.875 102.094V124.781H90.75V102.094C90.75 85.3882 104.294 71.8438 121 71.8438C137.706 71.8438 151.25 85.3882 151.25 102.094V124.781H136.125Z" fill="#7B909B"/>
<path d="M75.625 22.6875C79.8017 22.6875 83.1875 19.3017 83.1875 15.125C83.1875 10.9483 79.8017 7.5625 75.625 7.5625C71.4483 7.5625 68.0625 10.9483 68.0625 15.125C68.0625 19.3017 71.4483 22.6875 75.625 22.6875Z" fill="#FCDAB7"/>
<path d="M105.875 22.6875C110.052 22.6875 113.438 19.3017 113.438 15.125C113.438 10.9483 110.052 7.5625 105.875 7.5625C101.698 7.5625 98.3125 10.9483 98.3125 15.125C98.3125 19.3017 101.698 22.6875 105.875 22.6875Z" fill="#FCDAB7"/>
<path d="M136.125 37.8125C140.302 37.8125 143.688 34.4267 143.688 30.25C143.688 26.0733 140.302 22.6875 136.125 22.6875C131.948 22.6875 128.562 26.0733 128.562 30.25C128.562 34.4267 131.948 37.8125 136.125 37.8125Z" fill="#FCDAB7"/>
<path d="M166.375 22.6875C170.552 22.6875 173.938 19.3017 173.938 15.125C173.938 10.9483 170.552 7.5625 166.375 7.5625C162.198 7.5625 158.812 10.9483 158.812 15.125C158.812 19.3017 162.198 22.6875 166.375 22.6875Z" fill="#FCDAB7"/>
<path d="M226.875 83.1875C231.052 83.1875 234.438 79.8017 234.438 75.625C234.438 71.4483 231.052 68.0625 226.875 68.0625C222.698 68.0625 219.312 71.4483 219.312 75.625C219.312 79.8017 222.698 83.1875 226.875 83.1875Z" fill="#FCDAB7"/>
<path d="M226.875 113.438C231.052 113.438 234.438 110.052 234.438 105.875C234.438 101.698 231.052 98.3125 226.875 98.3125C222.698 98.3125 219.312 101.698 219.312 105.875C219.312 110.052 222.698 113.438 226.875 113.438Z" fill="#FCDAB7"/>
<path d="M211.75 143.688C215.927 143.688 219.312 140.302 219.312 136.125C219.312 131.948 215.927 128.562 211.75 128.562C207.573 128.562 204.188 131.948 204.188 136.125C204.188 140.302 207.573 143.688 211.75 143.688Z" fill="#FCDAB7"/>
<path d="M226.875 173.938C231.052 173.938 234.438 170.552 234.438 166.375C234.438 162.198 231.052 158.812 226.875 158.812C222.698 158.812 219.312 162.198 219.312 166.375C219.312 170.552 222.698 173.938 226.875 173.938Z" fill="#FCDAB7"/>
<path d="M166.375 234.438C170.552 234.438 173.938 231.052 173.938 226.875C173.938 222.698 170.552 219.312 166.375 219.312C162.198 219.312 158.812 222.698 158.812 226.875C158.812 231.052 162.198 234.438 166.375 234.438Z" fill="#FCDAB7"/>
<path d="M136.125 234.438C140.302 234.438 143.688 231.052 143.688 226.875C143.688 222.698 140.302 219.312 136.125 219.312C131.948 219.312 128.562 222.698 128.562 226.875C128.562 231.052 131.948 234.438 136.125 234.438Z" fill="#FCDAB7"/>
<path d="M105.875 219.312C110.052 219.312 113.438 215.927 113.438 211.75C113.438 207.573 110.052 204.188 105.875 204.188C101.698 204.188 98.3125 207.573 98.3125 211.75C98.3125 215.927 101.698 219.312 105.875 219.312Z" fill="#FCDAB7"/>
<path d="M75.625 234.438C79.8017 234.438 83.1875 231.052 83.1875 226.875C83.1875 222.698 79.8017 219.312 75.625 219.312C71.4483 219.312 68.0625 222.698 68.0625 226.875C68.0625 231.052 71.4483 234.438 75.625 234.438Z" fill="#FCDAB7"/>
<path d="M15.125 173.938C19.3017 173.938 22.6875 170.552 22.6875 166.375C22.6875 162.198 19.3017 158.812 15.125 158.812C10.9483 158.812 7.5625 162.198 7.5625 166.375C7.5625 170.552 10.9483 173.938 15.125 173.938Z" fill="#FCDAB7"/>
<path d="M15.125 143.688C19.3017 143.688 22.6875 140.302 22.6875 136.125C22.6875 131.948 19.3017 128.562 15.125 128.562C10.9483 128.562 7.5625 131.948 7.5625 136.125C7.5625 140.302 10.9483 143.688 15.125 143.688Z" fill="#FCDAB7"/>
<path d="M30.25 113.438C34.4267 113.438 37.8125 110.052 37.8125 105.875C37.8125 101.698 34.4267 98.3125 30.25 98.3125C26.0733 98.3125 22.6875 101.698 22.6875 105.875C22.6875 110.052 26.0733 113.438 30.25 113.438Z" fill="#FCDAB7"/>
<path d="M15.125 83.1875C19.3017 83.1875 22.6875 79.8017 22.6875 75.625C22.6875 71.4483 19.3017 68.0625 15.125 68.0625C10.9483 68.0625 7.5625 71.4483 7.5625 75.625C7.5625 79.8017 10.9483 83.1875 15.125 83.1875Z" fill="#FCDAB7"/>
<path d="M75.625 26.4688C69.3708 26.4688 64.2812 21.3792 64.2812 15.125C64.2812 8.87081 69.3708 3.78125 75.625 3.78125C81.8792 3.78125 86.9688 8.87081 86.9688 15.125C86.9688 21.3792 81.8792 26.4688 75.625 26.4688ZM75.625 11.3438C73.5378 11.3438 71.8438 13.0415 71.8438 15.125C71.8438 17.2085 73.5378 18.9062 75.625 18.9062C77.7122 18.9062 79.4062 17.2085 79.4062 15.125C79.4062 13.0415 77.7122 11.3438 75.625 11.3438Z" fill="#445783"/>
<path d="M105.875 26.4688C99.6208 26.4688 94.5312 21.3792 94.5312 15.125C94.5312 8.87081 99.6208 3.78125 105.875 3.78125C112.129 3.78125 117.219 8.87081 117.219 15.125C117.219 21.3792 112.129 26.4688 105.875 26.4688ZM105.875 11.3438C103.788 11.3438 102.094 13.0415 102.094 15.125C102.094 17.2085 103.788 18.9062 105.875 18.9062C107.962 18.9062 109.656 17.2085 109.656 15.125C109.656 13.0415 107.962 11.3438 105.875 11.3438Z" fill="#445783"/>
<path d="M136.125 41.5938C129.871 41.5938 124.781 36.5042 124.781 30.25C124.781 23.9958 129.871 18.9062 136.125 18.9062C142.379 18.9062 147.469 23.9958 147.469 30.25C147.469 36.5042 142.379 41.5938 136.125 41.5938ZM136.125 26.4688C134.038 26.4688 132.344 28.1665 132.344 30.25C132.344 32.3335 134.038 34.0312 136.125 34.0312C138.212 34.0312 139.906 32.3335 139.906 30.25C139.906 28.1665 138.212 26.4688 136.125 26.4688Z" fill="#445783"/>
<path d="M166.375 26.4688C160.121 26.4688 155.031 21.3792 155.031 15.125C155.031 8.87081 160.121 3.78125 166.375 3.78125C172.629 3.78125 177.719 8.87081 177.719 15.125C177.719 21.3792 172.629 26.4688 166.375 26.4688ZM166.375 11.3438C164.288 11.3438 162.594 13.0415 162.594 15.125C162.594 17.2085 164.288 18.9062 166.375 18.9062C168.462 18.9062 170.156 17.2085 170.156 15.125C170.156 13.0415 168.462 11.3438 166.375 11.3438Z" fill="#445783"/>
<path d="M109.656 22.6875H102.094V75.625H109.656V22.6875Z" fill="#445783"/>
<path d="M94.5312 102.094H86.9688V50.7217L72.9517 36.7046C72.2408 35.9975 71.8438 35.0333 71.8438 34.0312V22.6875H79.4062V32.4658L93.4233 46.4829C94.1342 47.19 94.5312 48.1542 94.5312 49.1562V102.094Z" fill="#445783"/>
<path d="M139.906 37.8125H132.344V75.625H139.906V37.8125Z" fill="#445783"/>
<path d="M137.456 56.4805L134.798 49.3983L162.594 38.9733V22.6875H170.156V41.5938C170.156 43.1705 169.177 44.5809 167.706 45.1368L137.456 56.4805Z" fill="#445783"/>
<path d="M226.875 86.9688C220.621 86.9688 215.531 81.8792 215.531 75.625C215.531 69.3708 220.621 64.2812 226.875 64.2812C233.129 64.2812 238.219 69.3708 238.219 75.625C238.219 81.8792 233.129 86.9688 226.875 86.9688ZM226.875 71.8438C224.788 71.8438 223.094 73.5415 223.094 75.625C223.094 77.7085 224.788 79.4062 226.875 79.4062C228.962 79.4062 230.656 77.7085 230.656 75.625C230.656 73.5415 228.962 71.8438 226.875 71.8438Z" fill="#445783"/>
<path d="M226.875 117.219C220.621 117.219 215.531 112.129 215.531 105.875C215.531 99.6208 220.621 94.5312 226.875 94.5312C233.129 94.5312 238.219 99.6208 238.219 105.875C238.219 112.129 233.129 117.219 226.875 117.219ZM226.875 102.094C224.788 102.094 223.094 103.792 223.094 105.875C223.094 107.958 224.788 109.656 226.875 109.656C228.962 109.656 230.656 107.958 230.656 105.875C230.656 103.792 228.962 102.094 226.875 102.094Z" fill="#445783"/>
<path d="M211.75 147.469C205.496 147.469 200.406 142.379 200.406 136.125C200.406 129.871 205.496 124.781 211.75 124.781C218.004 124.781 223.094 129.871 223.094 136.125C223.094 142.379 218.004 147.469 211.75 147.469ZM211.75 132.344C209.663 132.344 207.969 134.042 207.969 136.125C207.969 138.208 209.663 139.906 211.75 139.906C213.837 139.906 215.531 138.208 215.531 136.125C215.531 134.042 213.837 132.344 211.75 132.344Z" fill="#445783"/>
<path d="M226.875 177.719C220.621 177.719 215.531 172.629 215.531 166.375C215.531 160.121 220.621 155.031 226.875 155.031C233.129 155.031 238.219 160.121 238.219 166.375C238.219 172.629 233.129 177.719 226.875 177.719ZM226.875 162.594C224.788 162.594 223.094 164.292 223.094 166.375C223.094 168.458 224.788 170.156 226.875 170.156C228.962 170.156 230.656 168.458 230.656 166.375C230.656 164.292 228.962 162.594 226.875 162.594Z" fill="#445783"/>
<path d="M219.312 102.094H151.25V109.656H219.312V102.094Z" fill="#445783"/>
<path d="M192.844 94.5312H147.469V86.9688H191.278L205.295 72.9517C206.002 72.2408 206.963 71.8438 207.969 71.8438H219.312V79.4062H209.534L195.517 93.4233C194.81 94.1342 193.85 94.5312 192.844 94.5312Z" fill="#445783"/>
<path d="M204.188 132.344H158.812V139.906H204.188V132.344Z" fill="#445783"/>
<path d="M219.313 170.156H200.406C198.83 170.156 197.419 169.177 196.863 167.702L185.52 137.452L192.602 134.798L203.027 162.594H219.313V170.156Z" fill="#445783"/>
<path d="M166.375 238.219C160.121 238.219 155.031 233.129 155.031 226.875C155.031 220.621 160.121 215.531 166.375 215.531C172.629 215.531 177.719 220.621 177.719 226.875C177.719 233.129 172.629 238.219 166.375 238.219ZM166.375 223.094C164.288 223.094 162.594 224.792 162.594 226.875C162.594 228.958 164.288 230.656 166.375 230.656C168.462 230.656 170.156 228.958 170.156 226.875C170.156 224.792 168.462 223.094 166.375 223.094Z" fill="#445783"/>
<path d="M136.125 238.219C129.871 238.219 124.781 233.129 124.781 226.875C124.781 220.621 129.871 215.531 136.125 215.531C142.379 215.531 147.469 220.621 147.469 226.875C147.469 233.129 142.379 238.219 136.125 238.219ZM136.125 223.094C134.038 223.094 132.344 224.792 132.344 226.875C132.344 228.958 134.038 230.656 136.125 230.656C138.212 230.656 139.906 228.958 139.906 226.875C139.906 224.792 138.212 223.094 136.125 223.094Z" fill="#445783"/>
<path d="M105.875 223.094C99.6208 223.094 94.5312 218.004 94.5312 211.75C94.5312 205.496 99.6208 200.406 105.875 200.406C112.129 200.406 117.219 205.496 117.219 211.75C117.219 218.004 112.129 223.094 105.875 223.094ZM105.875 207.969C103.788 207.969 102.094 209.667 102.094 211.75C102.094 213.833 103.788 215.531 105.875 215.531C107.962 215.531 109.656 213.833 109.656 211.75C109.656 209.667 107.962 207.969 105.875 207.969Z" fill="#445783"/>
<path d="M75.625 238.219C69.3708 238.219 64.2812 233.129 64.2812 226.875C64.2812 220.621 69.3708 215.531 75.625 215.531C81.8792 215.531 86.9688 220.621 86.9688 226.875C86.9688 233.129 81.8792 238.219 75.625 238.219ZM75.625 223.094C73.5378 223.094 71.8438 224.792 71.8438 226.875C71.8438 228.958 73.5378 230.656 75.625 230.656C77.7122 230.656 79.4062 228.958 79.4062 226.875C79.4062 224.792 77.7122 223.094 75.625 223.094Z" fill="#445783"/>
<path d="M139.906 173.938H132.344V219.312H139.906V173.938Z" fill="#445783"/>
<path d="M170.156 219.312H162.594V209.534L148.577 195.517C147.866 194.81 147.469 193.846 147.469 192.844V170.156H155.031V191.278L169.048 205.295C169.759 206.002 170.156 206.967 170.156 207.969V219.312Z" fill="#445783"/>
<path d="M109.656 173.938H102.094V204.188H109.656V173.938Z" fill="#445783"/>
<path d="M79.4062 219.312H71.8438V200.406C71.8438 198.829 72.8231 197.419 74.294 196.863L104.544 185.519L107.202 192.602L79.4062 203.027V219.312Z" fill="#445783"/>
<path d="M15.125 177.719C8.87081 177.719 3.78125 172.629 3.78125 166.375C3.78125 160.121 8.87081 155.031 15.125 155.031C21.3792 155.031 26.4688 160.121 26.4688 166.375C26.4688 172.629 21.3792 177.719 15.125 177.719ZM15.125 162.594C13.0378 162.594 11.3438 164.292 11.3438 166.375C11.3438 168.458 13.0378 170.156 15.125 170.156C17.2122 170.156 18.9062 168.458 18.9062 166.375C18.9062 164.292 17.2122 162.594 15.125 162.594Z" fill="#445783"/>
<path d="M15.125 147.469C8.87081 147.469 3.78125 142.379 3.78125 136.125C3.78125 129.871 8.87081 124.781 15.125 124.781C21.3792 124.781 26.4688 129.871 26.4688 136.125C26.4688 142.379 21.3792 147.469 15.125 147.469ZM15.125 132.344C13.0378 132.344 11.3438 134.042 11.3438 136.125C11.3438 138.208 13.0378 139.906 15.125 139.906C17.2122 139.906 18.9062 138.208 18.9062 136.125C18.9062 134.042 17.2122 132.344 15.125 132.344Z" fill="#445783"/>
<path d="M30.25 117.219C23.9958 117.219 18.9062 112.129 18.9062 105.875C18.9062 99.6208 23.9958 94.5312 30.25 94.5312C36.5042 94.5312 41.5938 99.6208 41.5938 105.875C41.5938 112.129 36.5042 117.219 30.25 117.219ZM30.25 102.094C28.1628 102.094 26.4688 103.792 26.4688 105.875C26.4688 107.958 28.1628 109.656 30.25 109.656C32.3372 109.656 34.0312 107.958 34.0312 105.875C34.0312 103.792 32.3372 102.094 30.25 102.094Z" fill="#445783"/>
<path d="M15.125 86.9688C8.87081 86.9688 3.78125 81.8792 3.78125 75.625C3.78125 69.3708 8.87081 64.2812 15.125 64.2812C21.3792 64.2812 26.4688 69.3708 26.4688 75.625C26.4688 81.8792 21.3792 86.9688 15.125 86.9688ZM15.125 71.8438C13.0378 71.8438 11.3438 73.5415 11.3438 75.625C11.3438 77.7085 13.0378 79.4062 15.125 79.4062C17.2122 79.4062 18.9062 77.7085 18.9062 75.625C18.9062 73.5415 17.2122 71.8438 15.125 71.8438Z" fill="#445783"/>
<path d="M83.1875 132.344H22.6875V139.906H83.1875V132.344Z" fill="#445783"/>
<path d="M34.0312 170.156H22.6875V162.594H32.4658L46.4829 148.577C47.19 147.866 48.1504 147.469 49.1562 147.469H83.1875V155.031H50.7217L36.7046 169.048C35.9975 169.759 35.0371 170.156 34.0312 170.156Z" fill="#445783"/>
<path d="M49.3945 107.202L38.9733 79.4062H22.6875V71.8438H41.5938C43.1705 71.8438 44.5809 72.8231 45.1368 74.2978L56.4805 104.548L49.3945 107.202Z" fill="#445783"/>
<path d="M90.75 102.094H37.8125V109.656H90.75V102.094Z" fill="#445783"/>
<path d="M158.812 173.938H83.1875C81.0965 173.938 79.4062 172.243 79.4062 170.156V124.781C79.4062 122.694 81.0965 121 83.1875 121H158.812C160.904 121 162.594 122.694 162.594 124.781V170.156C162.594 172.243 160.904 173.938 158.812 173.938ZM86.9688 166.375H155.031V128.562H86.9688V166.375Z" fill="#445783"/>
<path d="M155.031 124.781H147.469V102.094C147.469 87.4981 135.592 75.625 121 75.625C106.408 75.625 94.5312 87.4981 94.5312 102.094V124.781H86.9688V102.094C86.9688 83.3312 102.234 68.0625 121 68.0625C139.766 68.0625 155.031 83.3312 155.031 102.094V124.781Z" fill="#445783"/>
<path d="M139.906 124.781H132.344V102.094C132.344 95.8396 127.254 90.75 121 90.75C114.746 90.75 109.656 95.8396 109.656 102.094V124.781H102.094V102.094C102.094 91.6688 110.575 83.1875 121 83.1875C131.425 83.1875 139.906 91.6688 139.906 102.094V124.781Z" fill="#445783"/>
<path d="M121 158.812C114.746 158.812 109.656 153.723 109.656 147.469C109.656 141.215 114.746 136.125 121 136.125C127.254 136.125 132.344 141.215 132.344 147.469C132.344 153.723 127.254 158.812 121 158.812ZM121 143.688C118.913 143.688 117.219 145.385 117.219 147.469C117.219 149.552 118.913 151.25 121 151.25C123.087 151.25 124.781 149.552 124.781 147.469C124.781 145.385 123.087 143.688 121 143.688Z" fill="#445783"/>
<path d="M124.781 155.031H117.219V170.156H124.781V155.031Z" fill="#445783"/>
</svg>
