<svg width="240" height="189" viewBox="0 0 240 189" fill="none" xmlns="http://www.w3.org/2000/svg">
<path d="M15.1316 0H72.5295C76.2886 0 79.7608 2.00797 81.6366 5.26542L91.0835 18.1707C92.9592 21.4281 96.4319 23.4361 100.191 23.4361H239.999V170.777C239.999 178.515 233.726 184.789 225.988 184.789H14.0117C6.27351 184.789 0 178.515 0 170.777V39.7807C0 28.9501 1.67331 18.184 4.961 7.86431C6.16537 3.23285 10.3463 0 15.1316 0Z" fill="#FCDAB7"/>
<path d="M206.32 21.0258H21.8398V98.9555H206.32V21.0258Z" fill="#EBF0F3"/>
<path d="M229.491 7.00592H171.65C167.537 7.00592 163.801 9.40596 162.092 13.1472L152.194 34.809C150.484 38.5503 146.749 40.9503 142.636 40.9503H0V174.28C0 182.018 6.27351 188.291 14.0117 188.291H225.988C233.726 188.291 240 182.018 240 174.28V17.5147C240 11.7112 235.295 7.00592 229.491 7.00592Z" fill="#FCDAB7"/>
</svg>
