<svg width="735" height="415" viewBox="0 0 735 415" fill="none" xmlns="http://www.w3.org/2000/svg">
<path d="M728.567 0H6.43313C4.72695 0 3.09066 0.611545 1.88422 1.70011C0.677773 2.78868 0 4.2651 0 5.80457V22.7165H735V5.80457C735 4.2651 734.322 2.78868 733.116 1.70011C731.909 0.611545 730.273 0 728.567 0Z" fill="#1E5F74"/>
<path d="M0 22.7164V403.296C0 406.4 1.36663 409.377 3.79926 411.572C6.23188 413.767 9.53122 415 12.9715 415H722.029C725.469 415 728.768 413.767 731.201 411.572C733.633 409.377 735 406.4 735 403.296V22.7164H0Z" fill="white"/>
<path opacity="0.8" d="M11.6414 13.9012C13.3016 13.9012 14.6475 12.6868 14.6475 11.1887C14.6475 9.69071 13.3016 8.47632 11.6414 8.47632C9.98115 8.47632 8.63525 9.69071 8.63525 11.1887C8.63525 12.6868 9.98115 13.9012 11.6414 13.9012Z" fill="#FA5959"/>
<path opacity="0.8" d="M19.9085 13.9012C21.5687 13.9012 22.9146 12.6868 22.9146 11.1887C22.9146 9.69071 21.5687 8.47632 19.9085 8.47632C18.2482 8.47632 16.9023 9.69071 16.9023 11.1887C16.9023 12.6868 18.2482 13.9012 19.9085 13.9012Z" fill="#FED253"/>
<path opacity="0.8" d="M28.1746 13.9012C29.8348 13.9012 31.1807 12.6868 31.1807 11.1887C31.1807 9.69071 29.8348 8.47632 28.1746 8.47632C26.5144 8.47632 25.1685 9.69071 25.1685 11.1887C25.1685 12.6868 26.5144 13.9012 28.1746 13.9012Z" fill="#8CCF4D"/>
</svg>
